<svg width="686" height="547" viewBox="0 0 686 547" fill="none" xmlns="http://www.w3.org/2000/svg">
<rect y="159" width="686" height="388" rx="20" fill="#497AF8"/>
<rect y="159" width="686" height="388" rx="20" fill="white" fill-opacity="0.95"/>
<path d="M253.008 40.4326H106.83V176.978H253.008V40.4326Z" fill="#EAEFF8"/>
<path d="M251.877 41.5647V175.847H107.962V41.5647H251.877ZM254.14 39.3017H251.877H107.962H105.699V41.5647V175.847V178.11H107.962H251.877H254.14V175.847V41.5647V39.3017Z" fill="#A5BEFF"/>
<path d="M221.659 61.2605H138.178V71.5421H221.659V61.2605Z" fill="#A5BEFF"/>
<path d="M230.731 87.1407H127.72V92.8127H230.731V87.1407Z" fill="#C9D0FF"/>
<path d="M230.731 99.904H127.72V105.576H230.731V99.904Z" fill="#C9D0FF"/>
<path d="M230.731 112.666H127.72V118.338H230.731V112.666Z" fill="#C9D0FF"/>
<path d="M175.058 125.429H127.72V131.101H175.058V125.429Z" fill="#C9D0FF"/>
<path d="M230.732 124.953H183.952V162.068H230.732V124.953Z" fill="#C9D0FF"/>
<path d="M106.62 42.9079V33.5182C106.62 26.6703 112.191 21.0991 119.039 21.0991H240.8C247.648 21.0991 253.219 26.6703 253.219 33.5182V42.9079H106.62Z" fill="#A5BEFF"/>
<path d="M240.8 22.4412C246.918 22.4412 251.877 27.4003 251.877 33.5182V41.5657H107.962V33.5182C107.962 27.4003 112.921 22.4412 119.039 22.4412H240.8ZM240.8 19.7548H119.039C111.45 19.7548 105.277 25.9285 105.277 33.5171V41.5647V44.25H107.962H251.877H254.562V41.5647V33.5171C254.562 25.9295 248.389 19.7548 240.8 19.7548Z" fill="#A5BEFF"/>
<path d="M124.634 30.7621C124.634 33.3338 122.55 35.4178 119.978 35.4178C117.406 35.4178 115.322 33.3338 115.322 30.7621C115.322 28.1904 117.406 26.1064 119.978 26.1064C122.55 26.1064 124.634 28.1904 124.634 30.7621Z" fill="#FC678A"/>
<path d="M143.257 30.7621C143.257 33.3338 141.173 35.4178 138.601 35.4178C136.029 35.4178 133.945 33.3338 133.945 30.7621C133.945 28.1904 136.029 26.1064 138.601 26.1064C141.173 26.1064 143.257 28.1904 143.257 30.7621Z" fill="#4BEBAD"/>
<path d="M161.879 30.7621C161.879 33.3338 159.795 35.4178 157.224 35.4178C154.652 35.4178 152.568 33.3338 152.568 30.7621C152.568 28.1904 154.652 26.1064 157.224 26.1064C159.794 26.1064 161.879 28.1904 161.879 30.7621Z" fill="white"/>
<path d="M564.25 66.5305H324.073V230.744H564.25V66.5305Z" fill="#EAEFF8"/>
<path d="M563.119 67.6625V229.612H325.205V67.6625H563.119ZM565.383 65.3984H563.12H325.205H322.942V67.6614V229.612V231.875H325.205H563.119H565.382V229.612V67.6625V65.3984H565.383Z" fill="#A5BEFF"/>
<path d="M323.863 69.0046V59.615C323.863 52.7671 329.434 47.1959 336.282 47.1959H552.043C558.892 47.1959 564.464 52.7671 564.464 59.615V69.0046H323.863Z" fill="#A5BEFF"/>
<path d="M552.043 48.538C558.161 48.538 563.12 53.4971 563.12 59.615V67.6625H325.205V59.615C325.205 53.4971 330.164 48.538 336.282 48.538H552.043ZM552.043 45.8527H336.282C328.693 45.8527 322.52 52.0263 322.52 59.615V67.6625V70.3479H325.205H563.119H565.805V67.6625V59.615C565.805 52.0263 559.631 45.8527 552.043 45.8527Z" fill="#A5BEFF"/>
<path d="M341.877 56.8599C341.877 59.4317 339.793 61.5156 337.221 61.5156C334.65 61.5156 332.565 59.4317 332.565 56.8599C332.565 54.2893 334.649 52.2043 337.221 52.2043C339.793 52.2043 341.877 54.2882 341.877 56.8599Z" fill="#FC678A"/>
<path d="M360.499 56.8599C360.499 59.4317 358.416 61.5156 355.844 61.5156C353.272 61.5156 351.188 59.4317 351.188 56.8599C351.188 54.2893 353.272 52.2043 355.844 52.2043C358.414 52.2043 360.499 54.2882 360.499 56.8599Z" fill="#4BEBAD"/>
<path d="M379.122 56.8599C379.122 59.4317 377.038 61.5156 374.467 61.5156C371.895 61.5156 369.811 59.4317 369.811 56.8599C369.811 54.2893 371.895 52.2043 374.467 52.2043C377.038 52.2043 379.122 54.2882 379.122 56.8599Z" fill="white"/>
<path d="M407.788 229.612C406.598 221.348 400.668 180.381 400.041 180.466C398.885 180.622 397.987 182 397.018 184.053C396.229 185.725 395.624 187.478 395.149 189.282C394.426 192.024 387.959 222.591 386.475 229.612H407.788Z" fill="#1C2533"/>
<path d="M498.241 229.612C496.757 222.591 490.29 192.024 489.567 189.282C489.092 187.478 488.487 185.725 487.698 184.053C486.729 182 485.764 180.751 484.607 180.594C483.98 180.51 478.106 221.361 476.927 229.612H498.241Z" fill="#1C2533"/>
<path d="M404.293 196.312L402.064 180.485L426.691 169.291C429.788 167.883 431.861 164.936 432.103 161.6L433.494 142.402L451.975 142.455L453.577 161.997C453.836 165.166 455.715 167.936 458.602 169.408L483.134 181.904L481.409 196.311L404.293 196.312Z" fill="#FFB2A3"/>
<path d="M434.101 143.058L451.372 143.108L452.924 162.052C453.202 165.449 455.214 168.418 458.304 169.992L482.429 182.282L480.826 195.658H404.86L402.778 180.879L426.959 169.886C430.274 168.379 432.494 165.222 432.753 161.647L434.101 143.058ZM432.885 141.746L431.451 161.551C431.226 164.65 429.3 167.385 426.42 168.694L401.348 180.092L403.725 196.965H481.988L483.837 181.529L458.899 168.825C456.233 167.467 454.469 164.875 454.229 161.944C453.639 154.743 452.579 141.802 452.579 141.802L432.885 141.746Z" fill="#EF7D6E"/>
<path d="M432.316 154.059C438.81 160.975 447.124 159.85 453.671 155.148C453.138 148.646 452.578 141.803 452.578 141.803L432.884 141.746L432.005 153.882C432.113 153.908 432.219 153.956 432.316 154.059Z" fill="#EF7D6E"/>
<path d="M478.078 229.612L483.837 181.53L458.899 168.826C456.691 167.702 455.116 165.724 454.5 163.415H431.083C430.371 165.716 428.704 167.658 426.421 168.695L401.349 180.093L408.324 229.612H478.078Z" fill="#CCCCCC"/>
<path d="M446.259 226.897L447.978 217.411L443.452 170.394H442.035L437.509 217.411L439.227 226.897H446.259Z" fill="#2D3644"/>
<path d="M445.799 163.609H439.688L434.987 168.309L442.743 176.064L450.498 168.309L445.799 163.609Z" fill="#2D3644"/>
<path d="M431.339 159.521L442.677 163.653L434.077 175.952L426.33 168.695L431.339 159.521Z" fill="#F2F2F2"/>
<path d="M454.147 159.521L442.81 163.653L451.409 175.952L459.157 168.695L454.147 159.521Z" fill="#F2F2F2"/>
<path d="M479.854 229.612L484.607 180.594L460.533 167.369L442.706 220.013L424.951 167.396L400.041 180.466L405.061 229.612H479.854Z" fill="#2D3644"/>
<path d="M424.951 167.396L417.785 175.719L426.942 184.876L418.479 186.541L442.706 220.013L424.951 167.396Z" fill="#49566B"/>
<path d="M460.533 167.369L467.701 175.692L458.544 184.849L467.006 186.514L442.706 220.013L460.533 167.369Z" fill="#49566B"/>
<path d="M468.696 118.031C470.167 118.591 470.991 120.463 471.157 122.225C471.585 126.767 470.045 131.453 466.986 134.918C466.487 135.482 465.935 136.026 465.239 136.337C460.457 138.479 462.276 124.948 462.754 122.85C463.283 120.534 465.676 116.883 468.696 118.031Z" fill="#FFB2A3"/>
<path fill-rule="evenodd" clip-rule="evenodd" d="M463.31 122.977C463.553 121.912 464.236 120.518 465.197 119.541ZM465.197 119.541C466.151 118.571 467.275 118.101 468.494 118.564ZM468.494 118.564C469.062 118.78 469.545 119.266 469.915 119.949C470.283 120.628 470.512 121.46 470.589 122.279L470.589 122.279C471.003 126.662 469.515 131.192 466.559 134.54C466.07 135.093 465.585 135.558 465.007 135.817L465.006 135.817C464.505 136.042 464.179 136.024 463.958 135.932C463.726 135.836 463.49 135.607 463.277 135.176C462.842 134.296 462.635 132.849 462.594 131.169C462.512 127.844 463.08 123.985 463.31 122.977M464.385 118.742C465.514 117.594 467.096 116.814 468.899 117.499L468.899 117.499C469.802 117.843 470.465 118.572 470.917 119.406C471.37 120.242 471.635 121.228 471.724 122.172C472.168 126.873 470.575 131.714 467.413 135.295L467.412 135.295C466.904 135.87 466.285 136.494 465.472 136.857C464.778 137.168 464.115 137.231 463.521 136.985C462.94 136.743 462.537 136.249 462.256 135.681C461.702 134.561 461.496 132.896 461.455 131.197C461.37 127.768 461.95 123.814 462.199 122.724L462.199 122.723C462.485 121.471 463.262 119.882 464.385 118.742Z" fill="#EF7D6E"/>
<path d="M468.672 123.223C468.604 122.899 468.535 122.569 468.36 122.286C468.186 122.003 467.884 121.771 467.544 121.765C466.909 121.755 466.55 122.456 466.38 123.048C465.935 124.591 465.703 126.193 465.692 127.794C465.797 127.621 466.07 127.608 466.242 127.722C466.413 127.836 466.5 128.035 466.558 128.228C467.006 129.729 465.947 131.488 464.378 131.847" fill="#FFB2A3"/>
<path fill-rule="evenodd" clip-rule="evenodd" d="M466.336 121.834C466.592 121.5 466.993 121.186 467.554 121.196L467.544 121.765L467.553 121.196C468.148 121.205 468.606 121.598 468.845 121.988C469.074 122.358 469.16 122.775 469.224 123.08C469.226 123.089 469.228 123.098 469.23 123.107C469.294 123.415 469.096 123.717 468.788 123.781C468.48 123.845 468.178 123.648 468.114 123.34C468.043 122.999 467.989 122.769 467.875 122.586L467.874 122.584L467.874 122.584C467.766 122.408 467.619 122.336 467.535 122.335L467.534 122.335C467.46 122.334 467.365 122.365 467.24 122.527C467.11 122.696 467.003 122.944 466.927 123.206L466.927 123.206C466.56 124.481 466.343 125.797 466.28 127.12C466.377 127.148 466.472 127.191 466.558 127.249C466.906 127.48 467.04 127.852 467.104 128.065L467.104 128.065C467.651 129.897 466.379 131.974 464.506 132.403C464.199 132.473 463.893 132.281 463.823 131.975C463.753 131.668 463.945 131.362 464.251 131.292C465.514 131.003 466.361 129.562 466.012 128.392C466 128.35 465.988 128.316 465.976 128.288C465.846 128.363 465.688 128.385 465.537 128.342C465.29 128.273 465.12 128.046 465.122 127.79C465.134 126.137 465.373 124.483 465.832 122.891C465.928 122.56 466.085 122.161 466.336 121.834Z" fill="#EF7D6E"/>
<path d="M417.933 117.888C416.459 118.439 415.624 120.306 415.447 122.068C414.991 126.607 416.503 131.302 419.541 134.783C420.036 135.35 420.585 135.896 421.279 136.212C426.048 138.38 424.31 124.84 423.845 122.739C423.33 120.42 420.959 116.756 417.933 117.888Z" fill="#FFB2A3"/>
<path fill-rule="evenodd" clip-rule="evenodd" d="M422.239 118.622C423.355 119.769 424.123 121.362 424.401 122.615L424.401 122.615C424.643 123.707 425.199 127.665 425.094 131.094C425.042 132.792 424.827 134.456 424.266 135.572C423.982 136.139 423.576 136.631 422.993 136.869C422.398 137.112 421.735 137.045 421.043 136.73C420.232 136.362 419.617 135.736 419.112 135.157L419.112 135.157C415.972 131.559 414.409 126.71 414.88 122.011L414.88 122.011C414.975 121.067 415.246 120.083 415.704 119.25C416.161 118.418 416.828 117.693 417.733 117.354M422.239 118.622C421.117 117.468 419.539 116.679 417.733 117.354ZM421.423 119.416C420.474 118.441 419.353 117.965 418.133 118.421L418.132 118.422C417.564 118.634 417.077 119.118 416.703 119.798C416.331 120.476 416.096 121.307 416.014 122.125C415.574 126.505 417.034 131.044 419.97 134.408M421.423 119.416C422.378 120.398 423.052 121.797 423.289 122.862ZM423.289 122.862C423.512 123.872 424.057 127.735 423.955 131.059C423.904 132.738 423.688 134.183 423.248 135.061C423.032 135.492 422.795 135.719 422.562 135.814C422.341 135.904 422.015 135.92 421.515 135.693L421.514 135.693C420.938 135.431 420.455 134.964 419.97 134.408" fill="#EF7D6E"/>
<path d="M417.925 123.08C417.994 122.757 418.067 122.427 418.243 122.144C418.419 121.861 418.722 121.63 419.062 121.627C419.696 121.621 420.051 122.323 420.218 122.917C420.654 124.462 420.877 126.064 420.878 127.667C420.774 127.493 420.5 127.478 420.329 127.592C420.157 127.705 420.068 127.902 420.009 128.095C419.552 129.594 420.601 131.36 422.167 131.727" fill="#FFB2A3"/>
<path fill-rule="evenodd" clip-rule="evenodd" d="M419.362 122.391C419.237 122.228 419.142 122.196 419.068 122.197L419.067 122.197C418.983 122.198 418.836 122.268 418.727 122.444C418.612 122.63 418.554 122.862 418.483 123.198C418.417 123.506 418.115 123.702 417.807 123.637C417.499 123.571 417.303 123.269 417.368 122.961C417.369 122.956 417.37 122.951 417.371 122.946C417.437 122.638 417.526 122.218 417.759 121.843C418.001 121.453 418.461 121.063 419.056 121.057M419.362 122.391C419.49 122.56 419.596 122.808 419.67 123.071ZM420.269 121.702C420.519 122.031 420.674 122.431 420.767 122.762L420.767 122.762C421.216 124.358 421.446 126.011 421.447 127.666C421.448 127.923 421.277 128.147 421.03 128.216C420.878 128.258 420.72 128.234 420.591 128.159C420.579 128.187 420.567 128.221 420.554 128.262M420.269 121.702C420.015 121.368 419.616 121.052 419.056 121.057ZM419.67 123.071C420.03 124.349 420.24 125.666 420.294 126.989ZM420.294 126.989C420.196 127.016 420.101 127.059 420.014 127.117C419.668 127.346 419.531 127.711 419.465 127.929L419.465 127.929C418.906 129.758 420.166 131.843 422.037 132.282C422.343 132.354 422.65 132.164 422.722 131.858C422.794 131.551 422.604 131.245 422.298 131.173C421.037 130.877 420.197 129.43 420.554 128.262" fill="#EF7D6E"/>
<path d="M421.219 116.866C421.442 113.246 422.018 109.622 422.928 106.261C424.372 100.93 427.632 96.0073 432.644 93.294C438.179 90.2978 444.865 89.7285 450.882 91.0439C455.323 92.0151 459.567 94.4357 462.158 98.1941C464.918 102.196 465.176 108.234 465.565 112.954C466.139 119.907 465.54 126.993 463.732 133.744C462.257 139.247 459.805 144.716 455.886 148.968C452.797 152.32 448.647 154.843 444.008 154.959C443.276 154.977 442.544 154.936 441.82 154.842C436.698 154.166 432.479 150.797 429.445 146.862C424.91 140.978 422.302 133.463 421.437 126.046C421.095 123.102 421.026 119.986 421.219 116.866Z" fill="#FFB2A3"/>
<path fill-rule="evenodd" clip-rule="evenodd" d="M450.76 91.6005C444.854 90.3093 438.311 90.8742 432.915 93.7951C428.07 96.4183 424.891 101.194 423.478 106.41C422.579 109.731 422.008 113.317 421.787 116.901L421.787 116.901C421.596 119.99 421.665 123.072 422.003 125.98C422.859 133.317 425.437 140.728 429.896 146.514C432.88 150.385 436.979 153.628 441.894 154.277C442.59 154.368 443.292 154.407 443.994 154.389C448.431 154.278 452.444 151.862 455.467 148.582C459.304 144.419 461.721 139.045 463.182 133.596C464.973 126.911 465.566 119.891 464.997 113.001L465.565 112.954L464.997 113.001C464.965 112.615 464.935 112.221 464.903 111.822C464.742 109.764 464.568 107.553 464.189 105.404C463.737 102.838 463.002 100.421 461.689 98.5176L461.689 98.5175C459.197 94.9028 455.093 92.5479 450.76 91.6005ZM432.373 92.793C438.047 89.7214 444.876 89.1478 451.004 90.4873L451.004 90.4873C455.554 91.4823 459.937 93.9686 462.627 97.8707C464.074 99.9694 464.848 102.572 465.312 105.206C465.701 107.415 465.879 109.689 466.04 111.747C466.071 112.143 466.102 112.53 466.133 112.908C466.712 119.924 466.108 127.076 464.282 133.891L464.282 133.891C462.793 139.45 460.307 145.012 456.305 149.354L455.886 148.968L456.305 149.354C453.149 152.779 448.863 155.407 444.023 155.528C443.26 155.547 442.498 155.505 441.747 155.407L441.746 155.407C436.417 154.704 432.077 151.209 428.994 147.21L428.994 147.21C424.382 141.227 421.746 133.609 420.871 126.112L420.871 126.112C420.525 123.132 420.455 119.982 420.65 116.831M432.373 92.793L432.373 92.793ZM432.373 92.793C427.195 95.5962 423.854 100.666 422.379 106.112ZM422.379 106.112L422.379 106.112ZM422.379 106.112C421.458 109.513 420.875 113.175 420.65 116.831Z" fill="#EF7D6E"/>
<path d="M439.894 99.1C443.698 102.363 445.206 106.876 449.109 110.093C453.709 113.885 459.887 115.455 465.669 114.657C465.638 114.089 465.611 113.521 465.565 112.954C465.176 108.234 464.918 102.196 462.158 98.1941C459.567 94.4357 455.323 92.0141 450.882 91.0439C444.865 89.7285 438.52 90.3149 432.631 92.5919C430.486 93.4216 430.466 95.9869 429.71 96.5733C433.183 96.1144 437.339 96.9088 439.894 99.1Z" fill="#EF7D6E"/>
<path d="M469.544 112.759C470.623 105.658 470.941 98.3474 468.059 91.6078C465.587 85.8286 460.757 81.0829 454.934 78.4307C451.815 77.0103 448.322 76.737 444.901 76.4786C440.962 76.1817 436.975 76.4615 433.123 77.3201C430.938 77.8068 428.754 78.4983 426.953 79.7911C425.423 80.8888 424.631 82.2267 423.896 83.8754C423.094 85.6775 421.595 84.7073 420.378 86.1234C419.568 87.0678 419.368 88.3553 419.2 89.5731C418.525 94.4561 417.267 99.5899 417.139 104.511C417.091 106.317 417.375 108.229 417.431 110.06C417.506 112.525 417.719 114.346 418.217 116.765C418.773 116.71 419.395 116.801 419.874 116.98C420.206 118.838 420.56 125.405 420.56 125.405H422.925C422.925 125.405 422.634 118.841 422.69 117.81C422.843 115.046 422.138 112.241 424.183 110.117C425.746 108.493 430.882 102.538 430.049 96.6387C434.446 95.601 438.256 95.095 442.44 97.3076C446.059 99.2222 448.932 102.199 452.13 104.723C455.328 107.246 460.149 109.285 464.266 109.068C464.275 112.042 463.9 125.405 463.9 125.405H465.933L466.696 121.057C466.696 121.057 466.882 116.699 469.126 117.016C469.446 115.31 469.28 114.502 469.544 112.759Z" fill="#2D3644"/>
<path d="M443.705 135.733C442.677 135.39 441.568 134.988 440.996 134.092C440.457 133.246 440.533 132.177 440.627 131.186C440.987 127.413 441.347 123.64 441.707 119.868" fill="#FFB2A3"/>
<path fill-rule="evenodd" clip-rule="evenodd" d="M441.761 119.301C442.074 119.331 442.304 119.609 442.274 119.922C442.085 121.905 441.896 123.887 441.707 125.87C441.536 127.659 441.365 129.449 441.194 131.24M441.761 119.301C441.448 119.271 441.169 119.5 441.14 119.814ZM441.14 119.814C440.95 121.796 440.761 123.779 440.572 125.761ZM440.572 125.761C440.402 127.552 440.231 129.342 440.06 131.132ZM440.06 131.132L440.06 131.132ZM441.194 131.24C441.097 132.264 441.059 133.131 441.476 133.786C441.923 134.484 442.82 134.837 443.885 135.193C444.184 135.293 444.345 135.615 444.245 135.914C444.146 136.212 443.823 136.373 443.525 136.274C442.534 135.943 441.214 135.493 440.516 134.399L440.516 134.398C439.855 133.362 439.969 132.089 440.06 131.132" fill="#EF7D6E"/>
<path fill-rule="evenodd" clip-rule="evenodd" d="M436.477 141.283C436.632 141.008 436.979 140.911 437.253 141.065C438.517 141.776 440.472 142.236 442.556 142.298C444.637 142.361 446.761 142.025 448.362 141.224C448.643 141.083 448.986 141.197 449.126 141.479C449.267 141.76 449.153 142.102 448.872 142.243C447.049 143.154 444.722 143.503 442.522 143.437C440.325 143.371 438.171 142.889 436.694 142.058C436.42 141.904 436.323 141.557 436.477 141.283Z" fill="#EF7D6E"/>
<path d="M432.49 125.377C429.817 125.083 430.283 121.053 432.96 121.348C435.634 121.643 435.166 125.672 432.49 125.377Z" fill="#2D3644"/>
<path d="M424.976 117.396C426.891 116.804 428.781 116.163 430.816 116.152C432.915 116.142 434.697 116.758 436.649 117.412C437.319 117.636 437.671 116.691 437.117 116.343C433.612 114.13 427.988 114.177 424.654 116.65C424.308 116.906 424.479 117.549 424.976 117.396Z" fill="#2D3644"/>
<path d="M453.261 125.441C455.935 125.162 455.493 121.131 452.814 121.41C450.139 121.688 450.582 125.72 453.261 125.441Z" fill="#2D3644"/>
<path d="M461.148 116.758C457.827 114.266 452.206 114.188 448.686 116.381C448.138 116.723 448.47 117.675 449.149 117.453C451.116 116.806 452.866 116.172 454.989 116.226C457.022 116.279 458.906 116.898 460.822 117.502C461.315 117.657 461.496 117.018 461.148 116.758Z" fill="#2D3644"/>
<path fill-rule="evenodd" clip-rule="evenodd" d="M426.583 119.501C425.553 119.501 424.718 120.336 424.718 121.365V128.01C424.718 130.539 426.769 132.59 429.297 132.59H434.756C437.285 132.59 439.336 130.539 439.336 128.01V121.365C439.336 120.336 438.501 119.501 437.471 119.501H426.583ZM424.095 121.365C424.095 119.992 425.209 118.878 426.583 118.878H437.471C438.845 118.878 439.959 119.992 439.959 121.365V128.01C439.959 130.883 437.629 133.213 434.756 133.213H429.297C426.425 133.213 424.095 130.883 424.095 128.01V121.365Z" fill="#2D3644"/>
<path fill-rule="evenodd" clip-rule="evenodd" d="M448.367 119.501C447.337 119.501 446.502 120.336 446.502 121.365V128.01C446.502 130.539 448.553 132.59 451.081 132.59H456.54C459.069 132.59 461.12 130.539 461.12 128.01V121.365C461.12 120.336 460.285 119.501 459.255 119.501H448.367ZM445.879 121.365C445.879 119.992 446.993 118.878 448.367 118.878H459.255C460.629 118.878 461.743 119.992 461.743 121.365V128.01C461.743 130.883 459.413 133.213 456.54 133.213H451.081C448.209 133.213 445.879 130.883 445.879 128.01V121.365Z" fill="#2D3644"/>
<path fill-rule="evenodd" clip-rule="evenodd" d="M446.039 121.017H439.452V120.394H446.039V121.017Z" fill="#2D3644"/>
<path fill-rule="evenodd" clip-rule="evenodd" d="M466.191 120.937H461.209V120.314H466.191V120.937Z" fill="#2D3644"/>
<path fill-rule="evenodd" clip-rule="evenodd" d="M421.348 120.314H424.67V120.937H421.348V120.314Z" fill="#2D3644"/>
<path d="M426.538 215.715C427.743 210.593 424.567 205.465 419.445 204.261C414.324 203.057 409.196 206.232 407.992 211.354C406.787 216.475 409.963 221.603 415.085 222.808C420.206 224.012 425.334 220.836 426.538 215.715Z" fill="#FC678A"/>
<path d="M414.139 215.014H410.366V216.221H414.139V215.014Z" fill="white"/>
<path d="M424.131 215.014H420.358V216.221H424.131V215.014Z" fill="white"/>
<path fill-rule="evenodd" clip-rule="evenodd" d="M413.501 213.01C413.348 213.276 413.235 213.658 413.235 214.222H411.27C411.27 213.39 411.439 212.655 411.798 212.031C412.159 211.403 412.677 210.951 413.271 210.633C414.415 210.023 415.891 209.89 417.309 209.89C418.727 209.89 420.203 210.023 421.347 210.633C421.942 210.951 422.459 211.403 422.82 212.031C423.179 212.655 423.348 213.39 423.348 214.222H421.383C421.383 213.658 421.27 213.276 421.117 213.01C420.966 212.748 420.743 212.538 420.422 212.366C419.735 212 418.683 211.854 417.309 211.854C415.935 211.854 414.883 212 414.196 212.366C413.875 212.538 413.652 212.748 413.501 213.01Z" fill="white"/>
<path d="M477.808 220.284C481.528 216.564 481.528 210.532 477.808 206.812C474.088 203.092 468.056 203.092 464.336 206.812C460.616 210.532 460.616 216.564 464.336 220.284C468.056 224.004 474.088 224.004 477.808 220.284Z" fill="#4BEBAD"/>
<path d="M469.609 210.437V206.664H468.402V210.437H469.609Z" fill="white"/>
<path d="M469.609 220.43V216.656H468.401V220.43H469.609Z" fill="white"/>
<path fill-rule="evenodd" clip-rule="evenodd" d="M471.613 209.799C471.347 209.646 470.965 209.532 470.401 209.532V207.568C471.233 207.568 471.968 207.737 472.592 208.096C473.22 208.457 473.672 208.974 473.99 209.569C474.6 210.712 474.733 212.189 474.733 213.607C474.733 215.025 474.6 216.501 473.99 217.645C473.672 218.239 473.22 218.756 472.592 219.117C471.968 219.476 471.233 219.646 470.401 219.646V217.681C470.965 217.681 471.347 217.567 471.613 217.414C471.875 217.264 472.085 217.04 472.257 216.72C472.623 216.033 472.769 214.981 472.769 213.607C472.769 212.232 472.623 211.18 472.257 210.494C472.085 210.173 471.875 209.95 471.613 209.799Z" fill="white"/>
<path d="M340.354 122.321H215.617V258.865H340.354V122.321Z" fill="#EAEFF8"/>
<path d="M339.223 123.453V257.734H216.749V123.453H339.223ZM341.486 121.189H339.223H216.749H214.486V123.452V257.733V259.996H216.749H339.223H341.486V257.733V123.453V121.189Z" fill="#A5BEFF"/>
<path d="M309.006 143.148H246.965V153.43H309.006V143.148Z" fill="#A5BEFF"/>
<path d="M319.464 169.029H236.507V174.701H319.464V169.029Z" fill="#C9D0FF"/>
<path d="M319.464 181.791H236.507V187.463H319.464V181.791Z" fill="#C9D0FF"/>
<path d="M319.464 194.554H236.507V200.226H319.464V194.554Z" fill="#C9D0FF"/>
<path d="M319.464 207.317H236.507V212.989H319.464V207.317Z" fill="#C9D0FF"/>
<path d="M319.464 220.079H236.507V225.751H319.464V220.079Z" fill="#C9D0FF"/>
<path d="M215.405 124.795V115.405C215.405 108.557 220.977 102.986 227.826 102.986H328.147C334.996 102.986 340.567 108.557 340.567 115.405V124.795H215.405Z" fill="#A5BEFF"/>
<path d="M328.147 104.328C334.264 104.328 339.223 109.287 339.223 115.405V123.453H216.749V115.405C216.749 109.287 221.708 104.328 227.826 104.328H328.147ZM328.147 101.643H227.826C220.237 101.643 214.063 107.816 214.063 115.405V123.453V126.138H216.749H339.223H341.909V123.453V115.405C341.909 107.816 335.735 101.643 328.147 101.643Z" fill="#A5BEFF"/>
<path d="M233.42 112.65C233.42 115.222 231.336 117.306 228.765 117.306C226.193 117.306 224.109 115.222 224.109 112.65C224.109 110.079 226.193 107.994 228.765 107.994C231.335 107.994 233.42 110.078 233.42 112.65Z" fill="#FC678A"/>
<path d="M252.043 112.65C252.043 115.222 249.959 117.306 247.387 117.306C244.817 117.306 242.732 115.222 242.732 112.65C242.732 110.079 244.816 107.994 247.387 107.994C249.958 107.994 252.043 110.078 252.043 112.65Z" fill="#4BEBAD"/>
<path d="M270.665 112.65C270.665 115.222 268.581 117.306 266.009 117.306C263.438 117.306 261.353 115.222 261.353 112.65C261.353 110.079 263.437 107.994 266.009 107.994C268.581 107.994 270.665 110.078 270.665 112.65Z" fill="white"/>
<path d="M322.257 510.294C415.722 510.294 491.49 502.884 491.49 493.743C491.49 484.602 415.722 477.191 322.257 477.191C228.792 477.191 153.024 484.602 153.024 493.743C153.024 502.884 228.792 510.294 322.257 510.294Z" fill="#DFE8F8"/>
<path d="M416.292 292.105H328.481L343.56 236.978H431.371L416.292 292.105Z" fill="#D5DCF2"/>
<path d="M383.599 238.234C383.599 238.556 383.337 238.818 383.015 238.818C382.692 238.818 382.43 238.556 382.43 238.234C382.43 237.911 382.692 237.65 383.015 237.65C383.337 237.65 383.599 237.911 383.599 238.234Z" fill="#000540"/>
<path d="M413.954 289.374H332.314L345.898 239.71H427.538L413.954 289.374Z" fill="#000540"/>
<path d="M341.207 272.858L348.649 245.648H392.694L385.252 272.858H341.207Z" fill="#EAEFF8"/>
<path d="M391.953 246.214L384.82 272.293H341.949L349.082 246.214H391.953ZM393.436 245.082H391.953H349.082H348.218L347.989 245.915L340.856 271.994L340.465 273.424H341.947H384.819H385.683L385.911 272.591L393.044 246.512L393.436 245.082Z" fill="#A5BEFF"/>
<path d="M375.123 265.756L377.657 256.491H355.872L353.337 265.756H375.123Z" fill="#A5BEFF"/>
<path fill-rule="evenodd" clip-rule="evenodd" d="M383.658 253.974H353.161V251.862H383.658V253.974Z" fill="#A5BEFF"/>
<path d="M359.737 284.536L367.18 257.325H411.224L403.784 284.536H359.737Z" fill="#EAEFF8"/>
<path d="M410.485 257.891L403.352 283.971H360.48L367.613 257.891H410.485ZM411.967 256.759H410.485H367.613H366.749L366.521 257.592L359.388 283.672L358.997 285.102H360.479H403.351H404.215L404.443 284.269L411.576 258.189L411.967 256.759Z" fill="#A5BEFF"/>
<path d="M393.654 277.434L396.189 268.168H374.403L371.869 277.434H393.654Z" fill="#A5BEFF"/>
<path fill-rule="evenodd" clip-rule="evenodd" d="M402.188 265.651H371.692V263.54H402.188V265.651Z" fill="#A5BEFF"/>
<path d="M414.118 288.774L415.198 284.825C400.159 269.787 385.121 254.748 370.082 239.71H365.052L414.118 288.774Z" fill="url(#paint0_linear_161_2203)"/>
<path d="M418.273 273.585L427.538 239.71H384.398L418.273 273.585Z" fill="url(#paint1_linear_161_2203)"/>
<path d="M305.607 298.479H413.68V292.244H310.589C307.837 292.244 305.607 294.475 305.607 297.227V298.479Z" fill="#AFBADB"/>
<path d="M388.846 296.986V298.479H413.679V292.244H393.588C390.97 292.244 388.846 294.367 388.846 296.986Z" fill="#8B9BCC"/>
<path d="M465.412 306.061H398.949V490.132H465.412V306.061Z" fill="#A5BEFF"/>
<path d="M407.887 306.061H398.949V490.132H407.887V306.061Z" fill="#D4D9FF"/>
<path d="M398.949 312.511H407.887L465.412 306.061H398.949V312.511Z" fill="#5B6AD4"/>
<path d="M320.515 306.061H254.051V490.132H320.515V306.061Z" fill="#A5BEFF"/>
<path d="M262.99 306.061H254.051V490.132H262.99V306.061Z" fill="#D4D9FF"/>
<path d="M254.051 312.511H262.989L320.514 306.061H254.051V312.511Z" fill="#5B6AD4"/>
<path d="M478.635 298.77H232.259V306.121H478.635V298.77Z" fill="#A5BEFF"/>
<path d="M478.635 298.77H388.483V306.121H478.635V298.77Z" fill="#5B6AD4"/>
<path d="M226.138 163.003C226.125 162.866 226.122 162.727 226.107 162.59C226.035 161.94 225.94 161.291 225.813 160.647C224.741 155.171 219.309 144.282 212.152 147.346C208.029 149.112 203.364 153.657 200.693 157.225C197.427 161.589 197.074 168.725 197.633 173.902C198.316 180.242 200.347 206.09 203.132 211.826C208.542 222.967 217.665 242.975 225.521 252.438C226.165 235.904 225.564 189.404 226.138 171.915V163.003Z" fill="#522525"/>
<path d="M195.319 168.559H169.686V272.15H195.319V168.559Z" fill="#522525"/>
<path d="M296.789 298.77C296.789 298.77 296.398 287.65 311.049 287.65C325.7 287.65 327.165 296.704 327.165 298.77C327.165 298.77 296.161 298.141 296.789 298.77Z" fill="#000540"/>
<path d="M284.906 291.332L296.262 282.176L310.832 284.685L318.984 289.85C318.984 289.85 323.966 295.77 324.685 295.755C325.403 295.74 324.559 297.199 321.76 297.149C318.959 297.098 315.373 292.8 315.373 292.8L308.311 289.68C308.311 289.68 301.467 288.541 300.083 289.268C298.699 289.996 302.108 294.124 302.108 294.124L308.22 293.648C308.22 293.648 312.344 292.202 314.15 292.824C315.956 293.447 315.272 296.299 315.272 296.299L312.676 297.654L285.745 297.894L284.906 291.332Z" fill="#FFB2A3"/>
<path fill-rule="evenodd" clip-rule="evenodd" d="M295.87 281.691C296.01 281.578 296.191 281.531 296.368 281.561L310.937 284.07C311.018 284.084 311.096 284.114 311.165 284.158L319.318 289.323C319.372 289.357 319.42 289.399 319.461 289.448L318.984 289.85C319.461 289.448 319.461 289.448 319.461 289.448L319.462 289.449L319.517 289.513C319.553 289.556 319.606 289.619 319.675 289.7C319.812 289.861 320.008 290.091 320.246 290.367C320.723 290.92 321.364 291.655 322.028 292.39C322.693 293.126 323.372 293.853 323.926 294.392C324.204 294.663 324.439 294.874 324.618 295.014C324.694 295.074 324.749 295.112 324.787 295.135C324.951 295.149 325.147 295.205 325.311 295.362C325.536 295.577 325.575 295.859 325.54 296.074C325.479 296.448 325.195 296.753 324.918 296.963C324.308 297.424 323.249 297.799 321.748 297.772C320.901 297.757 320.047 297.425 319.275 296.992C318.495 296.554 317.749 295.983 317.107 295.427C316.679 295.055 316.292 294.686 315.966 294.358C315.988 294.494 316.002 294.627 316.01 294.752C316.042 295.201 316.008 295.621 315.969 295.924C315.949 296.076 315.928 296.203 315.91 296.292C315.902 296.337 315.894 296.373 315.889 296.399L315.882 296.43L315.88 296.439L315.879 296.442L315.879 296.443C315.879 296.443 315.878 296.444 315.272 296.299L315.879 296.443C315.837 296.619 315.72 296.768 315.561 296.852L312.965 298.207C312.878 298.252 312.781 298.277 312.682 298.277L285.75 298.518C285.434 298.52 285.166 298.286 285.126 297.973L284.288 291.411C284.26 291.196 284.346 290.982 284.515 290.846L295.87 281.691ZM314.714 295.886C314.72 295.848 314.726 295.807 314.732 295.763C314.764 295.512 314.789 295.179 314.766 294.838C314.716 294.116 314.479 293.598 313.947 293.414C313.616 293.3 313.121 293.266 312.508 293.312C311.909 293.357 311.257 293.473 310.645 293.611C310.036 293.749 309.479 293.905 309.074 294.028C308.872 294.09 308.708 294.142 308.596 294.179C308.54 294.198 308.497 294.212 308.468 294.222L308.436 294.233L308.428 294.236L308.427 294.236C308.427 294.236 308.427 294.236 308.427 294.236C308.376 294.254 308.322 294.265 308.269 294.27L302.156 294.745C301.954 294.761 301.756 294.677 301.627 294.521L302.108 294.124C301.627 294.521 301.627 294.521 301.627 294.521L301.623 294.517L301.615 294.507L301.585 294.47C301.559 294.438 301.522 294.391 301.475 294.332C301.381 294.214 301.25 294.045 301.097 293.841C300.792 293.434 300.397 292.877 300.042 292.292C299.695 291.718 299.359 291.07 299.211 290.489C299.137 290.199 299.095 289.871 299.162 289.555C299.236 289.211 299.439 288.902 299.792 288.716C300.068 288.571 300.418 288.499 300.759 288.458C301.114 288.415 301.523 288.4 301.956 288.402C302.821 288.407 303.829 288.483 304.78 288.581C305.733 288.679 306.641 288.8 307.309 288.896C307.644 288.944 307.919 288.986 308.111 289.016C308.207 289.031 308.282 289.043 308.334 289.052L308.393 289.061L308.413 289.065C308.413 289.065 308.414 289.065 308.311 289.68L308.413 289.065C308.465 289.073 308.516 289.088 308.563 289.11L315.625 292.229C315.712 292.268 315.79 292.326 315.851 292.4L315.853 292.402L315.859 292.409L315.887 292.442C315.913 292.472 315.951 292.516 316 292.572C316.1 292.685 316.246 292.848 316.431 293.045C316.801 293.438 317.322 293.961 317.925 294.484C318.53 295.009 319.205 295.522 319.886 295.904C320.574 296.291 321.218 296.515 321.771 296.525C322.864 296.545 323.578 296.315 323.974 296.091C323.932 296.061 323.89 296.029 323.849 295.997C323.618 295.816 323.346 295.568 323.056 295.286C322.473 294.719 321.772 293.968 321.102 293.226C320.43 292.482 319.781 291.739 319.301 291.182C319.061 290.903 318.863 290.671 318.724 290.508C318.658 290.43 318.606 290.369 318.569 290.325L310.603 285.278L296.434 282.839L285.569 291.599L286.293 297.265L312.521 297.031L314.714 295.886ZM312.212 292.086L308.132 290.283C308.083 290.275 308.01 290.263 307.918 290.249C307.73 290.219 307.46 290.178 307.131 290.131C306.473 290.036 305.583 289.918 304.652 289.822C303.718 289.726 302.756 289.654 301.949 289.65C301.545 289.647 301.192 289.662 300.908 289.697C300.622 289.731 300.457 289.779 300.382 289.816C300.382 289.816 300.382 289.817 300.382 289.817C300.372 289.866 300.369 289.98 300.42 290.18C300.521 290.577 300.778 291.097 301.11 291.646C301.435 292.184 301.805 292.704 302.096 293.094C302.209 293.244 302.309 293.374 302.389 293.476L308.093 293.032C308.123 293.022 308.161 293.009 308.206 292.994C308.326 292.955 308.499 292.899 308.712 292.834C309.136 292.706 309.724 292.54 310.371 292.394C310.952 292.263 311.592 292.145 312.212 292.086ZM324.831 295.159C324.831 295.159 324.827 295.158 324.82 295.154C324.827 295.157 324.831 295.159 324.831 295.159Z" fill="#EF7D6E"/>
<path d="M221.909 236.223L243.132 274.421L289.204 283.936L289.645 298.571C289.645 298.571 243.438 299.5 240.93 298.512C238.421 297.525 192.635 260.996 192.635 260.996L221.909 236.223Z" fill="#201923"/>
<path d="M334.908 476.279C333.557 476.279 331.785 475.734 329.639 474.661C329.037 474.361 328.307 474.045 327.494 473.692C322.987 471.742 316.199 468.805 314.605 461.405C315.968 458.915 314.789 453.885 314.738 453.665C314.622 453.336 305.483 428.356 304.061 423.653C306.019 422.998 314.451 421.043 320.133 419.781L327.123 455.912C327.132 455.959 327.146 456.006 327.167 456.05C327.218 456.165 332.341 467.413 337.505 474.472C337.137 475.702 336.307 476.279 334.908 476.279Z" fill="#FFB2A3"/>
<path d="M319.646 420.523L326.514 456.03C326.532 456.125 326.562 456.217 326.602 456.305C326.812 456.767 331.684 467.467 336.814 474.574C336.498 475.34 335.916 475.661 334.908 475.661C333.653 475.661 331.974 475.139 329.914 474.11C329.291 473.799 328.571 473.487 327.737 473.126C323.391 471.246 316.869 468.422 315.256 461.487C316.537 458.788 315.471 454.081 315.337 453.522C315.326 453.475 315.313 453.43 315.295 453.385C315.203 453.132 306.702 429.895 304.833 424.063C307.187 423.379 313.577 421.875 319.646 420.523ZM320.618 419.042C320.618 419.042 303.212 422.889 303.324 423.326C304.122 426.445 314.137 453.809 314.137 453.809C314.137 453.809 315.399 459.095 313.951 461.296C315.792 470.576 325.419 473.243 329.362 475.215C330.413 475.741 332.843 476.897 334.908 476.897C336.418 476.897 337.735 476.279 338.175 474.342C332.931 467.273 327.727 455.795 327.727 455.795L320.618 419.042Z" fill="#EF7D6E"/>
<path d="M354.64 487.548C347.585 487.285 333.954 486.805 332.706 486.979C331.008 487.224 327.627 476.583 323.997 474.406C321.979 473.186 317.117 473.693 313.196 474.39C312.631 469.701 313.112 465.389 313.953 461.297C329.631 463.795 331.068 468.934 333.186 472.23C334.29 473.943 336.379 474.35 338.179 474.335C339.05 476.193 339.833 477.704 340.443 478.517C343.346 482.394 348.428 481.9 351.824 482.873C353.741 483.425 354.422 485.69 354.64 487.548Z" fill="#48404C"/>
<path d="M332.706 486.984C331.012 487.225 327.627 476.58 323.997 474.402C321.979 473.192 317.121 473.701 313.203 474.391C313.383 475.889 313.662 477.421 314.077 478.997C316.495 488.191 316.978 490.127 316.978 490.127H321.333L320.367 477.546C320.367 477.546 325.206 473.676 327.624 481.903C330.043 490.129 326.655 489.645 332.947 489.646C339.237 489.647 354.721 490.132 354.721 490.132C354.721 490.132 354.81 488.961 354.641 487.552C347.581 487.287 333.955 486.805 332.706 486.984Z" fill="#201923"/>
<path d="M213.074 319.422C213.074 319.422 201.234 345.55 215.063 354.262C228.893 362.973 283.088 364.916 283.088 364.916L293.241 432.662L327.599 419.601L304.944 349.829C303.68 345.937 300.615 342.894 296.714 341.658L244.866 325.232L211.962 317.969L213.074 319.422Z" fill="#201923"/>
<path d="M300.96 476.279C299.609 476.279 297.836 475.734 295.69 474.661C295.088 474.361 294.358 474.045 293.545 473.692C289.04 471.743 282.259 468.808 280.659 461.419C282.248 458.929 282.905 456.571 282.919 453.35C282.942 447.685 282.365 438.581 279.502 427.201C281.414 426.556 289.709 424.633 295.401 423.367L293.163 455.752C293.156 455.855 293.175 455.957 293.216 456.05C293.268 456.165 298.391 467.413 303.555 474.471C303.189 475.702 302.357 476.279 300.96 476.279Z" fill="#FFB2A3"/>
<path d="M294.727 424.15L292.545 455.709C292.531 455.914 292.568 456.119 292.653 456.305C292.863 456.767 297.735 467.467 302.864 474.574C302.549 475.34 301.967 475.661 300.958 475.661C299.704 475.661 298.024 475.139 295.965 474.11C295.342 473.799 294.622 473.487 293.788 473.126C289.452 471.249 282.948 468.434 281.317 461.531C282.875 459.016 283.522 456.607 283.536 453.352C283.56 447.745 282.998 438.793 280.243 427.62C282.508 426.956 288.731 425.489 294.727 424.15ZM296.073 422.585C296.073 422.585 278.667 426.432 278.78 426.869C279.577 429.988 282.352 440.985 282.3 453.346C282.285 456.89 281.449 459.094 280.002 461.294C281.843 470.575 291.47 473.242 295.413 475.214C296.464 475.74 298.894 476.896 300.958 476.896C302.47 476.896 303.785 476.278 304.226 474.341C298.982 467.272 293.778 455.794 293.778 455.794L296.073 422.585Z" fill="#EF7D6E"/>
<path d="M320.691 487.548C313.636 487.285 300.004 486.805 298.757 486.979C297.059 487.224 293.677 476.583 290.048 474.406C288.03 473.186 283.168 473.693 279.247 474.39C278.682 469.701 279.163 465.389 280.004 461.297C295.682 463.795 297.117 468.934 299.237 472.23C300.341 473.943 302.43 474.35 304.231 474.335C305.102 476.193 305.885 477.704 306.494 478.517C309.397 482.394 314.479 481.9 317.875 482.873C319.791 483.425 320.473 485.69 320.691 487.548Z" fill="#48404C"/>
<path d="M298.757 486.984C297.063 487.225 293.677 476.58 290.048 474.402C288.03 473.192 283.172 473.701 279.254 474.391C279.434 475.889 279.714 477.421 280.127 478.997C282.546 488.191 283.029 490.127 283.029 490.127H287.384L286.418 477.546C286.418 477.546 291.257 473.676 293.675 481.903C296.094 490.129 292.706 489.645 298.998 489.646C305.288 489.647 320.772 490.132 320.772 490.132C320.772 490.132 320.861 488.961 320.692 487.552C313.633 487.287 300.007 486.805 298.757 486.984Z" fill="#201923"/>
<path d="M194.158 327.93C194.158 327.93 182.317 354.058 196.147 362.77C209.977 371.482 267.843 370.769 267.843 370.769L277.996 438.515L306.33 428.111L291.823 352.138C291.823 352.138 293.457 341.715 272.281 340.371C255.352 339.295 225.95 333.74 225.95 333.74L193.047 326.478L194.158 327.93Z" fill="#352C38"/>
<path d="M202.244 211.214C202.244 211.214 216.657 235.005 219.495 244.448C222.332 253.891 228.704 337.124 228.704 337.124L247.918 329.348L232.443 291.989L233.286 252.123L209.716 211.465L202.244 211.214Z" fill="#352C38"/>
<path d="M208.553 219.503L210.915 213.166L217.113 221.98L213.433 222.949L220.116 229.632L222.756 256.243L220.116 246.388L208.553 219.503Z" fill="#5C4963"/>
<path d="M192.477 220.096L192.775 198.315L203.238 199.234L208.731 199.868C208.731 199.868 210.548 223.037 212.224 227.904C213.9 232.772 218.853 245.733 218.853 245.733L192.477 220.096Z" fill="#FFB2A3"/>
<path fill-rule="evenodd" clip-rule="evenodd" d="M192.357 197.852C192.486 197.735 192.657 197.678 192.83 197.693L203.293 198.613L203.31 198.615L208.803 199.248C209.099 199.282 209.33 199.522 209.353 199.819L208.731 199.868C209.353 199.819 209.353 199.819 209.353 199.819L209.374 200.079C209.387 200.25 209.408 200.501 209.434 200.822C209.487 201.464 209.564 202.387 209.663 203.51C209.859 205.756 210.138 208.801 210.47 211.997C210.801 215.193 211.184 218.537 211.589 221.382C211.996 224.249 212.417 226.55 212.813 227.701C213.648 230.125 215.303 234.574 216.751 238.425C217.474 240.348 218.146 242.12 218.636 243.411C218.881 244.056 219.081 244.581 219.22 244.945L219.435 245.51C219.435 245.51 219.436 245.511 218.853 245.733L219.435 245.51C219.54 245.784 219.44 246.094 219.196 246.255C218.951 246.415 218.628 246.385 218.418 246.181L192.043 220.543C191.92 220.423 191.851 220.258 191.854 220.087L192.152 198.306C192.154 198.133 192.229 197.968 192.357 197.852ZM217.268 243.323C216.803 242.096 216.213 240.537 215.583 238.864C214.136 235.017 212.476 230.551 211.634 228.107C211.192 226.825 210.758 224.405 210.353 221.558C209.946 218.69 209.561 215.329 209.229 212.125C208.896 208.921 208.616 205.869 208.42 203.619C208.321 202.493 208.244 201.568 208.191 200.924C208.175 200.734 208.162 200.568 208.15 200.429L203.175 199.855L193.39 198.995L193.105 219.835L217.268 243.323Z" fill="#EF7D6E"/>
<path d="M198.476 208.328C201.068 211.761 204.395 214.837 207.796 217.467C208.941 218.352 210.118 219.149 211.321 219.865C210.257 211.398 209.41 199.983 209.398 199.82C209.374 199.499 209.127 199.241 208.807 199.204L203.255 198.567L192.793 197.647C192.556 197.641 192.352 197.765 192.228 197.949C194.089 201.248 196.192 205.303 198.476 208.328Z" fill="#EF7D6E"/>
<path d="M196.65 304.773C196.65 304.773 187.432 324.256 185.692 331.347C193.827 339.312 205.698 341.348 212.934 341.158C225.018 340.839 237.359 334.793 237.359 334.793L223.08 256.719L191.49 212.853L173.136 222.558L176.103 248.886L196.65 304.773Z" fill="#352C38"/>
<path d="M196.65 304.773C196.65 304.773 193.907 310.569 191.133 316.988C195.199 322.549 199.495 327.927 204.329 332.861C207.185 335.776 210.249 338.607 213.527 341.133C221.139 340.817 228.768 338.31 233.275 336.545C231.67 332.963 206.137 288.349 206.137 288.349C206.137 288.349 190.787 231.184 183.359 217.153L173.137 222.558L176.104 248.886L196.65 304.773Z" fill="#201923"/>
<path d="M220.116 246.388L214.116 230.946C214.059 231.764 212.994 232.752 211.859 233.372C207.832 235.576 203.032 230.157 203.032 230.157L213.291 246.343L222.755 256.244L220.116 246.388Z" fill="white"/>
<path d="M192.03 208.906L222.756 256.243L195.601 234.309L197.628 225.588L192.817 227.33L188.051 214.734L192.03 208.906Z" fill="#5C4963"/>
<path d="M226.48 331.784C226.48 331.784 230.764 341.04 237.331 341.015C243.898 340.991 249.436 342.466 249.436 342.466C249.436 342.466 252.253 343.339 253.217 342.755C254.181 342.171 253.713 341.404 253.713 341.404C253.713 341.404 257.453 342.289 258.067 342.861C258.68 343.432 260.748 343.854 261.983 343.16C263.218 342.467 263.218 342.466 263.218 342.466C263.218 342.466 264.765 342.847 265.366 341.843C265.967 340.838 256.304 334.98 254.808 333.946C253.311 332.913 242.886 330.147 242.886 330.147L233.536 328.777L226.48 331.784Z" fill="#FFB2A3"/>
<path fill-rule="evenodd" clip-rule="evenodd" d="M233.292 328.203C233.397 328.158 233.513 328.143 233.627 328.16L242.977 329.53C243 329.533 243.023 329.538 243.046 329.544L242.886 330.147C243.046 329.544 243.046 329.544 243.046 329.544L243.165 329.576C243.242 329.596 243.355 329.627 243.499 329.666C243.788 329.744 244.202 329.856 244.704 329.994C245.707 330.27 247.06 330.649 248.462 331.061C249.862 331.472 251.315 331.917 252.515 332.326C253.114 332.53 253.657 332.728 254.101 332.909C254.531 333.084 254.914 333.261 255.162 333.433C255.436 333.622 255.997 333.981 256.736 334.454C256.977 334.608 257.236 334.774 257.51 334.95C258.618 335.661 259.953 336.525 261.224 337.389C262.492 338.251 263.711 339.124 264.581 339.852C265.011 340.212 265.382 340.558 265.631 340.864C265.753 341.015 265.872 341.188 265.945 341.374C266.015 341.555 266.081 341.863 265.901 342.163C265.445 342.925 264.651 343.118 264.107 343.154C263.825 343.172 263.57 343.152 263.389 343.129C263.367 343.126 263.347 343.123 263.327 343.12L262.288 343.704C261.51 344.141 260.533 344.202 259.717 344.104C259.3 344.054 258.898 343.959 258.55 343.832C258.213 343.71 257.881 343.541 257.641 343.317C257.643 343.319 257.628 343.306 257.588 343.28C257.549 343.256 257.496 343.227 257.429 343.194C257.293 343.127 257.117 343.054 256.909 342.976C256.494 342.821 255.986 342.662 255.487 342.517C255.098 342.405 254.72 342.303 254.403 342.22C254.304 342.605 254.039 342.986 253.54 343.288C253.149 343.526 252.648 343.58 252.22 343.58C251.77 343.58 251.287 343.52 250.857 343.444C250.423 343.368 250.024 343.273 249.734 343.197C249.589 343.16 249.47 343.126 249.386 343.102C249.345 343.09 249.312 343.081 249.289 343.074L249.266 343.067L249.262 343.066L249.217 343.054C249.177 343.044 249.117 343.029 249.037 343.009C248.877 342.97 248.639 342.913 248.333 342.845C247.721 342.71 246.834 342.528 245.744 342.347C243.562 341.985 240.572 341.627 237.333 341.639C233.754 341.652 230.88 339.148 228.96 336.804C227.988 335.616 227.228 334.43 226.713 333.543C226.455 333.099 226.256 332.728 226.122 332.467C226.055 332.336 226.004 332.232 225.969 332.161C225.952 332.125 225.938 332.097 225.929 332.078L225.918 332.055L225.915 332.049L225.915 332.047C225.914 332.047 225.914 332.046 226.48 331.784L225.914 332.046C225.843 331.893 225.837 331.718 225.898 331.56C225.959 331.403 226.08 331.276 226.236 331.21L233.292 328.203ZM227.336 332.097C227.454 332.32 227.606 332.598 227.791 332.916C228.284 333.764 229.006 334.891 229.926 336.014C231.79 338.291 234.341 340.402 237.329 340.391C240.657 340.379 243.72 340.747 245.948 341.117C247.063 341.301 247.972 341.487 248.603 341.627C248.919 341.697 249.165 341.756 249.334 341.797C249.418 341.818 249.483 341.834 249.527 341.846L249.578 341.859L249.591 341.862L249.595 341.863L249.596 341.864C249.596 341.864 249.597 341.864 249.436 342.466L249.596 341.864C249.6 341.865 249.604 341.866 249.607 341.867C249.612 341.868 249.616 341.869 249.62 341.871L249.626 341.872L249.647 341.879C249.666 341.884 249.694 341.893 249.732 341.903C249.806 341.925 249.915 341.955 250.048 341.99C250.317 342.06 250.682 342.147 251.073 342.215C251.467 342.285 251.87 342.333 252.219 342.332C252.59 342.332 252.803 342.276 252.894 342.221C253.201 342.035 253.202 341.89 253.203 341.854L253.203 341.852C253.203 341.812 253.194 341.773 253.183 341.742C253.179 341.728 253.174 341.719 253.172 341.715C253.05 341.502 253.064 341.237 253.208 341.038C253.356 340.834 253.612 340.739 253.857 340.797L253.713 341.404C253.857 340.797 253.857 340.797 253.857 340.797L253.869 340.8L253.901 340.808C253.929 340.814 253.971 340.824 254.023 340.837C254.129 340.863 254.279 340.9 254.461 340.947C254.826 341.04 255.319 341.17 255.833 341.319C256.346 341.467 256.888 341.636 257.346 341.808C257.575 341.893 257.792 341.983 257.978 342.074C258.152 342.159 258.346 342.268 258.492 342.405C258.559 342.467 258.716 342.565 258.977 342.66C259.228 342.751 259.535 342.826 259.866 342.866C260.546 342.947 261.221 342.873 261.677 342.616L262.912 341.923C262.95 341.903 262.991 341.885 263.217 342.465L262.991 341.885C263.11 341.839 263.24 341.83 263.364 341.86L263.366 341.861C263.366 341.861 263.366 341.861 263.366 341.861C263.366 341.861 263.367 341.861 263.218 342.466L263.366 341.861L263.37 341.861C263.377 341.863 263.388 341.865 263.404 341.869C263.437 341.875 263.486 341.884 263.549 341.892C263.676 341.908 263.846 341.921 264.025 341.909C264.306 341.89 264.533 341.82 264.691 341.687C264.682 341.675 264.672 341.663 264.662 341.65C264.491 341.44 264.194 341.155 263.78 340.809C262.96 340.123 261.783 339.278 260.523 338.421C259.266 337.566 257.942 336.709 256.837 336C256.574 335.831 256.322 335.67 256.087 335.519C255.338 335.041 254.747 334.662 254.453 334.46C254.327 334.373 254.057 334.238 253.63 334.064C253.218 333.896 252.701 333.707 252.113 333.507C250.937 333.107 249.503 332.667 248.11 332.258C246.718 331.849 245.371 331.472 244.373 331.197C243.874 331.059 243.462 330.948 243.175 330.87C243.031 330.832 242.919 330.801 242.842 330.781L242.76 330.759L233.619 329.42L227.336 332.097Z" fill="#EF7D6E"/>
<path d="M246.148 338.286C247.138 339.259 248.494 339.733 249.752 340.274C251.338 340.956 253.014 341.872 254.709 342.201C255.168 342.29 255.422 341.714 255.026 341.447C253.722 340.568 252.105 340.092 250.65 339.507C249.23 338.935 247.75 338.177 246.197 338.166C246.137 338.166 246.105 338.243 246.148 338.286Z" fill="#EF7D6E"/>
<path d="M252.325 336.166C254.286 337.338 256.286 338.423 258.267 339.562C260.039 340.582 261.752 341.961 263.651 342.713C264.057 342.874 264.352 342.281 264.063 342.003C262.521 340.515 260.343 339.48 258.48 338.438C256.492 337.325 254.627 336.44 252.371 336.053C252.307 336.042 252.261 336.128 252.325 336.166Z" fill="#EF7D6E"/>
<path d="M190.848 228.564L203.008 291.945L241.229 327.436L224.328 343.985L180.019 299.774C180.019 299.774 165.707 236.288 169.205 227.288C172.047 219.973 188.722 210.901 190.848 228.564Z" fill="#413645"/>
<path d="M174.729 175.903C175.592 182.769 179.283 188.372 184.351 193.122C189.902 198.328 195.596 202.981 202.889 205.85C206.211 207.157 209.355 208.015 212.927 208.345C214.278 208.47 215.023 208.674 216.314 208.004C217.591 207.343 218.659 206.334 219.473 205.194C220.728 203.436 221.436 201.382 222.078 199.344C223.237 195.659 224.235 191.905 224.56 188.071C224.788 185.38 224.677 182.646 224.068 180.005C223.784 178.773 223.376 177.789 222.76 176.705C222.147 175.626 222.266 174.342 222.18 173.14C221.961 170.055 221.098 167.035 219.808 164.205C218.69 161.75 217.366 158.845 215.836 156.634C212.352 151.6 204.893 148.821 198.812 148.77C191.789 148.71 184.863 151.924 180.384 157.09C175.905 162.256 173.891 169.244 174.729 175.903Z" fill="#FFB2A3"/>
<path fill-rule="evenodd" clip-rule="evenodd" d="M198.817 148.16C191.613 148.098 184.517 151.391 179.923 156.69ZM198.807 149.38C191.965 149.322 185.209 152.457 180.845 157.49C176.483 162.521 174.517 169.335 175.335 175.827L175.335 175.827C176.174 182.506 179.766 187.988 184.768 192.677L184.768 192.677C190.304 197.868 195.929 202.456 203.112 205.282C206.393 206.573 209.481 207.414 212.983 207.738C213.177 207.756 213.354 207.774 213.519 207.791C214.55 207.899 215.084 207.955 216.033 207.463L216.034 207.463C217.21 206.853 218.208 205.916 218.976 204.839L218.976 204.839C220.169 203.168 220.854 201.199 221.495 199.161L221.496 199.161C222.651 195.489 223.633 191.786 223.952 188.019C224.175 185.378 224.066 182.71 223.474 180.142L224.068 180.005L223.474 180.142C223.474 180.142 223.474 180.142 223.474 180.142C223.205 178.975 222.82 178.046 222.23 177.007L222.76 176.705L222.23 177.007C222.23 177.007 222.23 177.007 222.23 177.007C221.863 176.361 221.727 175.673 221.665 175.026C221.634 174.703 221.622 174.38 221.611 174.073C221.61 174.035 221.609 173.997 221.607 173.959C221.598 173.689 221.59 173.434 221.572 173.183L221.572 173.183C221.358 170.182 220.518 167.233 219.253 164.458L219.253 164.458C218.129 161.99 216.827 159.138 215.335 156.981C213.676 154.584 211.045 152.693 208.055 151.393C205.067 150.095 201.763 149.405 198.807 149.38L198.807 149.38ZM208.541 150.274C211.672 151.635 214.513 153.65 216.338 156.287L215.851 156.624L216.338 156.287C217.901 158.545 219.245 161.495 220.355 163.934L220.363 163.952C221.678 166.836 222.563 169.927 222.789 173.096C222.809 173.372 222.818 173.652 222.827 173.919C222.828 173.957 222.829 173.994 222.831 174.031C222.841 174.337 222.853 174.628 222.88 174.911C222.934 175.476 223.045 175.97 223.291 176.404L223.291 176.404C223.931 177.532 224.364 178.571 224.663 179.868L224.663 179.868C225.289 182.583 225.4 185.381 225.168 188.122L225.168 188.122C224.838 192.024 223.824 195.829 222.66 199.527C222.019 201.564 221.287 203.703 219.969 205.548C219.11 206.753 217.972 207.833 216.595 208.546C215.307 209.214 214.424 209.118 213.364 209.004C213.205 208.986 213.041 208.969 212.871 208.953L212.871 208.953C209.229 208.616 206.028 207.74 202.665 206.418C195.263 203.506 189.501 198.787 183.933 193.567C178.801 188.756 175.01 183.031 174.124 175.98C173.265 169.153 175.328 161.991 179.923 156.69M208.541 150.274C205.408 148.912 201.942 148.186 198.817 148.16Z" fill="#EF7D6E"/>
<path d="M214.152 179.709C214.731 182.064 216.021 184.256 217.826 185.953C218.523 186.608 219.354 187.306 219.382 188.24C219.415 189.284 218.434 190.067 217.547 190.678" fill="#FFB2A3"/>
<path fill-rule="evenodd" clip-rule="evenodd" d="M214.007 179.117C214.334 179.036 214.664 179.236 214.745 179.563C215.295 181.802 216.522 183.891 218.244 185.509C218.293 185.555 218.344 185.603 218.397 185.652C218.697 185.931 219.048 186.257 219.331 186.611C219.671 187.036 219.972 187.569 219.992 188.221L219.992 188.221C220.015 188.954 219.677 189.555 219.269 190.023C218.863 190.487 218.342 190.871 217.893 191.18C217.616 191.371 217.236 191.301 217.045 191.024C216.854 190.747 216.924 190.367 217.201 190.175C217.639 189.874 218.051 189.561 218.35 189.22C218.645 188.882 218.782 188.57 218.773 188.259M214.007 179.117C213.679 179.197 213.479 179.527 213.56 179.855ZM213.56 179.855C214.167 182.327 215.519 184.622 217.408 186.398ZM217.58 186.559C217.524 186.506 217.466 186.453 217.408 186.398L217.408 186.398M217.58 186.559C217.882 186.84 218.156 187.096 218.378 187.373ZM218.378 187.373C218.635 187.694 218.764 187.977 218.773 188.259Z" fill="#EF7D6E"/>
<path d="M197.802 180.385C199.297 179.52 200.43 178.305 202.091 177.643C203.862 176.938 205.638 176.937 207.51 176.752C208.021 176.702 207.968 176.008 207.559 175.861C204.324 174.691 198.452 176.669 197.373 180.035C197.301 180.261 197.566 180.523 197.802 180.385Z" fill="#522525"/>
<path d="M205.876 185.261C208.301 184.33 206.791 180.731 204.363 181.662C201.938 182.593 203.447 186.192 205.876 185.261Z" fill="#522525"/>
<path d="M220.384 180.849C222.859 180.049 221.561 176.374 219.082 177.175C216.607 177.976 217.905 181.649 220.384 180.849Z" fill="#522525"/>
<path d="M215.62 174.392C216.913 173.744 218.196 173.009 219.639 172.72C220.803 172.486 222.39 172.986 223.384 172.418C223.593 172.299 223.736 172.027 223.595 171.805C222.771 170.503 220.37 170.91 219.079 171.294C217.455 171.777 216.05 172.696 215.456 174.256C215.419 174.348 215.531 174.436 215.62 174.392Z" fill="#522525"/>
<path d="M213.135 197.087C215.012 197.11 216.892 196.549 218.422 195.51L213.135 197.087Z" fill="#FFB2A3"/>
<path d="M213.135 197.494C214.957 197.624 217.085 197.64 218.672 196.624C218.97 196.433 219.239 196.075 219.202 195.698C219.087 194.499 218.004 194.496 217.131 195.021C215.812 195.817 214.729 196.542 213.134 196.679C212.615 196.725 212.61 197.456 213.135 197.494Z" fill="#EF7D6E"/>
<path d="M214.695 199.197C215.486 199.385 216.347 199.292 217.076 198.943L214.695 199.197Z" fill="#FFB2A3"/>
<path d="M214.432 199.668C215.071 200.418 216.839 200.249 217.457 199.553C217.919 199.033 217.578 198.318 216.919 198.254C216.533 198.215 216.125 198.38 215.737 198.423C215.355 198.465 214.883 198.503 214.557 198.705C214.199 198.924 214.174 199.364 214.432 199.668Z" fill="#EF7D6E"/>
<path d="M194.941 141.28C185.221 143.461 176.868 150.232 172.446 158.711C167.838 167.545 168.681 178.071 172.892 186.913C178.79 199.297 188.105 200.8 192.147 200.609C189.574 198.564 187.946 195 187.527 193.288C186.896 190.709 186.641 190.292 188.595 188.082C189.863 186.649 191.765 185.882 193.243 184.646C198.356 180.367 197.114 171.921 201.897 167.307C204.351 164.94 207.914 164.062 211.129 162.77C214.551 161.396 218.336 158.73 218.468 154.823C218.598 150.917 215.731 147.301 212.753 144.902C207.453 140.632 201.087 139.9 194.941 141.28Z" fill="#522525"/>
<path d="M189.529 188.547C188.264 186.838 185.721 185.495 183.548 185.343C179.587 185.068 178.729 188.983 180.293 191.735C182.34 195.332 187.06 199.424 191.646 197.492" fill="#FFB2A3"/>
<path fill-rule="evenodd" clip-rule="evenodd" d="M180.832 185.317C181.57 184.87 182.497 184.659 183.59 184.735L183.59 184.735C185.931 184.898 188.643 186.323 190.02 188.184C190.22 188.454 190.163 188.836 189.892 189.037C189.622 189.237 189.24 189.18 189.039 188.91C187.886 187.353 185.511 186.092 183.505 185.952C182.618 185.89 181.952 186.065 181.464 186.361C180.977 186.656 180.629 187.095 180.415 187.63C179.981 188.718 180.117 190.19 180.823 191.433M180.832 185.317C180.093 185.765 179.582 186.425 179.282 187.178ZM179.282 187.178C178.688 188.666 178.905 190.527 179.763 192.036ZM184.698 197.207C182.589 195.915 180.829 193.911 179.763 192.036L179.763 192.036M184.698 197.207C186.813 198.504 189.351 199.121 191.882 198.055ZM185.336 196.167C187.239 197.333 189.354 197.795 191.409 196.93C191.719 196.799 192.077 196.945 192.208 197.256C192.339 197.566 192.193 197.924 191.882 198.055M185.336 196.167C183.427 194.997 181.804 193.156 180.824 191.433Z" fill="#EF7D6E"/>
<path fill-rule="evenodd" clip-rule="evenodd" d="M185.798 189.702C185.06 189.061 184.361 188.834 183.749 189.098L183.507 188.539L183.749 189.098C183.631 189.149 183.495 189.308 183.465 189.584C183.436 189.851 183.524 190.109 183.705 190.269C183.958 190.492 183.981 190.877 183.758 191.13C183.535 191.382 183.15 191.406 182.897 191.183C182.37 190.718 182.188 190.043 182.252 189.453C182.315 188.872 182.635 188.25 183.265 187.978L183.265 187.978C184.532 187.431 185.738 188.034 186.598 188.78C187.473 189.539 188.166 190.585 188.52 191.353C188.604 191.536 188.592 191.749 188.489 191.922C188.385 192.095 188.203 192.205 188.002 192.217C187.891 192.224 187.838 192.258 187.809 192.283C187.777 192.311 187.744 192.36 187.726 192.437C187.686 192.605 187.736 192.822 187.871 192.964L187.871 192.965C188.049 193.153 188.33 193.308 188.677 193.399C189.022 193.489 189.388 193.503 189.695 193.449C190.027 193.391 190.343 193.613 190.402 193.945C190.46 194.277 190.238 194.593 189.906 194.651C189.417 194.737 188.874 194.711 188.37 194.58C187.868 194.449 187.36 194.201 186.984 193.803C186.559 193.353 186.406 192.711 186.539 192.154C186.62 191.814 186.811 191.501 187.102 191.286C186.778 190.75 186.321 190.156 185.798 189.702Z" fill="#EF7D6E"/>
<path d="M158.921 315.231L152.879 318.326L178.148 367.656L184.191 364.561L158.921 315.231Z" fill="#D4D9FF"/>
<path d="M176.448 315.232L170.405 318.328L195.675 367.658L201.717 364.563L176.448 315.232Z" fill="#D4D9FF"/>
<path d="M192.637 325.62C189.94 315.051 177.186 287.597 174.852 283.513C168.482 272.366 129.385 275.829 129.385 275.829L150.872 325.62H192.637Z" fill="#5B6AD4"/>
<path d="M222.514 423.371H211.185V478.103H222.514V423.371Z" fill="#D4D9FF"/>
<path d="M263.278 473.637H169.943V481.007H263.278V473.637Z" fill="#5B6AD4"/>
<path d="M179.338 493.499C183.079 493.499 186.112 490.467 186.112 486.726C186.112 482.984 183.079 479.952 179.338 479.952C175.597 479.952 172.564 482.984 172.564 486.726C172.564 490.467 175.597 493.499 179.338 493.499Z" fill="#5B6AD4"/>
<path d="M254.293 493.499C258.034 493.499 261.067 490.467 261.067 486.726C261.067 482.984 258.034 479.952 254.293 479.952C250.552 479.952 247.519 482.984 247.519 486.726C247.519 490.467 250.552 493.499 254.293 493.499Z" fill="#5B6AD4"/>
<path d="M225.701 366.789H207.998V434.292H225.701V366.789Z" fill="#D4D9FF"/>
<path d="M225.701 366.789H207.998V379.007H225.701V366.789Z" fill="#5B6AD4"/>
<path d="M264.751 360.815L167.222 360.515L171.65 370.926L268.711 373.521L264.751 360.815Z" fill="#5B6AD4"/>
<defs>
<linearGradient id="paint0_linear_161_2203" x1="431.454" y1="166.729" x2="372.432" y2="304.193" gradientUnits="userSpaceOnUse">
<stop stop-color="white"/>
<stop offset="1" stop-color="white" stop-opacity="0"/>
</linearGradient>
<linearGradient id="paint1_linear_161_2203" x1="438.621" y1="169.807" x2="379.599" y2="307.27" gradientUnits="userSpaceOnUse">
<stop stop-color="white"/>
<stop offset="1" stop-color="white" stop-opacity="0"/>
</linearGradient>
</defs>
</svg>
