<svg width="24" height="24" viewBox="0 0 24 24" fill="none" xmlns="http://www.w3.org/2000/svg">
<path fill-rule="evenodd" clip-rule="evenodd" d="M21 12C21 16.9706 16.9706 21 12 21C7.02944 21 3 16.9706 3 12C3 7.02944 7.02944 3 12 3C16.9706 3 21 7.02944 21 12ZM23 12C23 18.0751 18.0751 23 12 23C5.92487 23 1 18.0751 1 12C1 5.92487 5.92487 1 12 1C18.0751 1 23 5.92487 23 12ZM16 10.1213C16.3905 9.73079 16.3905 9.09763 16 8.70711C15.6095 8.31658 14.9763 8.31658 14.5858 8.70711L10 13.2929L7.70711 11C7.31658 10.6095 6.68342 10.6095 6.29289 11C5.90237 11.3905 5.90237 12.0237 6.29289 12.4142L10 16.1213L16 10.1213Z" fill="#4C4C4C"/>
</svg>
