<svg width="1920" height="1080" viewBox="0 0 1920 1080" fill="none" xmlns="http://www.w3.org/2000/svg">
<rect width="1920" height="1080" fill="white"/>
<rect x="264" y="319" width="686" height="388" rx="20" fill="#497AF8"/>
<rect x="264" y="319" width="686" height="388" rx="20" fill="white" fill-opacity="0.95"/>
<path d="M517.008 200.433H370.83V336.978H517.008V200.433Z" fill="#EAEFF8"/>
<path d="M515.877 201.565V335.847H371.962V201.565H515.877ZM518.14 199.302H515.877H371.962H369.699V201.565V335.847V338.11H371.962H515.877H518.14V335.847V201.565V199.302Z" fill="#A5BEFF"/>
<path d="M485.659 221.261H402.178V231.542H485.659V221.261Z" fill="#A5BEFF"/>
<path d="M494.731 247.141H391.72V252.813H494.731V247.141Z" fill="#C9D0FF"/>
<path d="M494.731 259.904H391.72V265.576H494.731V259.904Z" fill="#C9D0FF"/>
<path d="M494.731 272.666H391.72V278.338H494.731V272.666Z" fill="#C9D0FF"/>
<path d="M439.058 285.429H391.72V291.101H439.058V285.429Z" fill="#C9D0FF"/>
<path d="M494.732 284.953H447.952V322.068H494.732V284.953Z" fill="#C9D0FF"/>
<path d="M370.62 202.908V193.518C370.62 186.67 376.191 181.099 383.039 181.099H504.8C511.648 181.099 517.219 186.67 517.219 193.518V202.908H370.62Z" fill="#A5BEFF"/>
<path d="M504.8 182.441C510.918 182.441 515.877 187.4 515.877 193.518V201.566H371.962V193.518C371.962 187.4 376.921 182.441 383.039 182.441H504.8ZM504.8 179.755H383.039C375.45 179.755 369.277 185.928 369.277 193.517V201.565V204.25H371.962H515.877H518.562V201.565V193.517C518.562 185.93 512.389 179.755 504.8 179.755Z" fill="#A5BEFF"/>
<path d="M388.634 190.762C388.634 193.334 386.55 195.418 383.978 195.418C381.406 195.418 379.322 193.334 379.322 190.762C379.322 188.19 381.406 186.106 383.978 186.106C386.55 186.106 388.634 188.19 388.634 190.762Z" fill="#FC678A"/>
<path d="M407.257 190.762C407.257 193.334 405.173 195.418 402.601 195.418C400.029 195.418 397.945 193.334 397.945 190.762C397.945 188.19 400.029 186.106 402.601 186.106C405.173 186.106 407.257 188.19 407.257 190.762Z" fill="#4BEBAD"/>
<path d="M425.879 190.762C425.879 193.334 423.795 195.418 421.224 195.418C418.652 195.418 416.568 193.334 416.568 190.762C416.568 188.19 418.652 186.106 421.224 186.106C423.794 186.106 425.879 188.19 425.879 190.762Z" fill="white"/>
<path d="M828.25 226.53H588.073V390.744H828.25V226.53Z" fill="#EAEFF8"/>
<path d="M827.119 227.662V389.612H589.205V227.662H827.119ZM829.383 225.398H827.12H589.205H586.942V227.661V389.612V391.875H589.205H827.119H829.382V389.612V227.662V225.398H829.383Z" fill="#A5BEFF"/>
<path d="M587.863 229.005V219.615C587.863 212.767 593.434 207.196 600.282 207.196H816.043C822.892 207.196 828.464 212.767 828.464 219.615V229.005H587.863Z" fill="#A5BEFF"/>
<path d="M816.043 208.538C822.161 208.538 827.12 213.497 827.12 219.615V227.662H589.205V219.615C589.205 213.497 594.164 208.538 600.282 208.538H816.043ZM816.043 205.853H600.282C592.693 205.853 586.52 212.026 586.52 219.615V227.662V230.348H589.205H827.119H829.805V227.662V219.615C829.805 212.026 823.631 205.853 816.043 205.853Z" fill="#A5BEFF"/>
<path d="M605.877 216.86C605.877 219.432 603.793 221.516 601.221 221.516C598.65 221.516 596.565 219.432 596.565 216.86C596.565 214.289 598.649 212.204 601.221 212.204C603.793 212.204 605.877 214.288 605.877 216.86Z" fill="#FC678A"/>
<path d="M624.499 216.86C624.499 219.432 622.416 221.516 619.844 221.516C617.272 221.516 615.188 219.432 615.188 216.86C615.188 214.289 617.272 212.204 619.844 212.204C622.414 212.204 624.499 214.288 624.499 216.86Z" fill="#4BEBAD"/>
<path d="M643.122 216.86C643.122 219.432 641.038 221.516 638.467 221.516C635.895 221.516 633.811 219.432 633.811 216.86C633.811 214.289 635.895 212.204 638.467 212.204C641.038 212.204 643.122 214.288 643.122 216.86Z" fill="white"/>
<path d="M671.788 389.612C670.598 381.348 664.668 340.381 664.041 340.466C662.885 340.622 661.987 342 661.018 344.053C660.229 345.725 659.624 347.478 659.149 349.282C658.426 352.024 651.959 382.591 650.475 389.612H671.788Z" fill="#1C2533"/>
<path d="M762.241 389.612C760.757 382.591 754.29 352.024 753.567 349.282C753.092 347.478 752.487 345.725 751.698 344.053C750.729 342 749.764 340.751 748.607 340.594C747.98 340.51 742.106 381.361 740.927 389.612H762.241Z" fill="#1C2533"/>
<path d="M668.293 356.312L666.064 340.485L690.691 329.291C693.788 327.883 695.861 324.936 696.103 321.6L697.494 302.402L715.975 302.455L717.577 321.997C717.836 325.166 719.715 327.936 722.602 329.408L747.134 341.904L745.409 356.311L668.293 356.312Z" fill="#FFB2A3"/>
<path d="M698.101 303.058L715.372 303.108L716.924 322.052C717.202 325.449 719.214 328.418 722.304 329.992L746.429 342.282L744.826 355.658H668.86L666.778 340.879L690.959 329.886C694.274 328.379 696.494 325.222 696.753 321.647L698.101 303.058ZM696.885 301.746L695.451 321.551C695.226 324.65 693.3 327.385 690.42 328.694L665.348 340.092L667.725 356.965H745.988L747.837 341.529L722.899 328.825C720.233 327.467 718.469 324.875 718.229 321.944C717.639 314.743 716.579 301.802 716.579 301.802L696.885 301.746Z" fill="#EF7D6E"/>
<path d="M696.316 314.059C702.81 320.975 711.124 319.85 717.671 315.148C717.138 308.646 716.578 301.803 716.578 301.803L696.884 301.746L696.005 313.882C696.113 313.908 696.219 313.956 696.316 314.059Z" fill="#EF7D6E"/>
<path d="M742.078 389.612L747.837 341.53L722.899 328.826C720.691 327.702 719.116 325.724 718.5 323.415H695.083C694.371 325.716 692.704 327.658 690.421 328.695L665.349 340.093L672.324 389.612H742.078Z" fill="#CCCCCC"/>
<path d="M710.259 386.897L711.978 377.411L707.452 330.394H706.035L701.509 377.411L703.227 386.897H710.259Z" fill="#2D3644"/>
<path d="M709.799 323.609H703.688L698.987 328.309L706.743 336.064L714.498 328.309L709.799 323.609Z" fill="#2D3644"/>
<path d="M695.339 319.521L706.677 323.653L698.077 335.952L690.33 328.695L695.339 319.521Z" fill="#F2F2F2"/>
<path d="M718.147 319.521L706.81 323.653L715.409 335.952L723.157 328.695L718.147 319.521Z" fill="#F2F2F2"/>
<path d="M743.854 389.612L748.607 340.594L724.533 327.369L706.706 380.013L688.951 327.396L664.041 340.466L669.061 389.612H743.854Z" fill="#2D3644"/>
<path d="M688.951 327.396L681.785 335.719L690.942 344.876L682.479 346.541L706.706 380.013L688.951 327.396Z" fill="#49566B"/>
<path d="M724.533 327.369L731.701 335.692L722.544 344.849L731.006 346.514L706.706 380.013L724.533 327.369Z" fill="#49566B"/>
<path d="M732.696 278.031C734.167 278.591 734.991 280.463 735.157 282.225C735.585 286.767 734.045 291.453 730.986 294.918C730.487 295.482 729.935 296.026 729.239 296.337C724.457 298.479 726.276 284.948 726.754 282.85C727.283 280.534 729.676 276.883 732.696 278.031Z" fill="#FFB2A3"/>
<path fill-rule="evenodd" clip-rule="evenodd" d="M727.31 282.977C727.553 281.912 728.236 280.518 729.197 279.541ZM729.197 279.541C730.151 278.571 731.275 278.101 732.494 278.564ZM732.494 278.564C733.062 278.78 733.545 279.266 733.915 279.949C734.283 280.628 734.512 281.46 734.589 282.279L734.589 282.279C735.003 286.662 733.515 291.192 730.559 294.54C730.07 295.093 729.585 295.558 729.007 295.817L729.006 295.817C728.505 296.042 728.179 296.024 727.958 295.932C727.726 295.836 727.49 295.607 727.277 295.176C726.842 294.296 726.635 292.849 726.594 291.169C726.512 287.844 727.08 283.985 727.31 282.977M728.385 278.742C729.514 277.594 731.096 276.814 732.899 277.499L732.899 277.499C733.802 277.843 734.465 278.572 734.917 279.406C735.37 280.242 735.635 281.228 735.724 282.172C736.168 286.873 734.575 291.714 731.413 295.295L731.412 295.295C730.904 295.87 730.285 296.494 729.472 296.857C728.778 297.168 728.115 297.231 727.521 296.985C726.94 296.743 726.537 296.249 726.256 295.681C725.702 294.561 725.496 292.896 725.455 291.197C725.37 287.768 725.95 283.814 726.199 282.724L726.199 282.723C726.485 281.471 727.262 279.882 728.385 278.742Z" fill="#EF7D6E"/>
<path d="M732.672 283.223C732.604 282.899 732.535 282.569 732.36 282.286C732.186 282.003 731.884 281.771 731.544 281.765C730.909 281.755 730.55 282.456 730.38 283.048C729.935 284.591 729.703 286.193 729.692 287.794C729.797 287.621 730.07 287.608 730.242 287.722C730.413 287.836 730.5 288.035 730.558 288.228C731.006 289.729 729.947 291.488 728.378 291.847" fill="#FFB2A3"/>
<path fill-rule="evenodd" clip-rule="evenodd" d="M730.336 281.834C730.592 281.5 730.993 281.186 731.554 281.196L731.544 281.765L731.553 281.196C732.148 281.205 732.606 281.598 732.845 281.988C733.074 282.358 733.16 282.775 733.224 283.08C733.226 283.089 733.228 283.098 733.23 283.107C733.294 283.415 733.096 283.717 732.788 283.781C732.48 283.845 732.178 283.648 732.114 283.34C732.043 282.999 731.989 282.769 731.875 282.586L731.874 282.584L731.874 282.584C731.766 282.408 731.619 282.336 731.535 282.335L731.534 282.335C731.46 282.334 731.365 282.365 731.24 282.527C731.11 282.696 731.003 282.944 730.927 283.206L730.927 283.206C730.56 284.481 730.343 285.797 730.28 287.12C730.377 287.148 730.472 287.191 730.558 287.249C730.906 287.48 731.04 287.852 731.104 288.065L731.104 288.065C731.651 289.897 730.379 291.974 728.506 292.403C728.199 292.473 727.893 292.281 727.823 291.975C727.753 291.668 727.945 291.362 728.251 291.292C729.514 291.003 730.361 289.562 730.012 288.392C730 288.35 729.988 288.316 729.976 288.288C729.846 288.363 729.688 288.385 729.537 288.342C729.29 288.273 729.12 288.046 729.122 287.79C729.134 286.137 729.373 284.483 729.832 282.891C729.928 282.56 730.085 282.161 730.336 281.834Z" fill="#EF7D6E"/>
<path d="M681.933 277.888C680.459 278.439 679.624 280.306 679.447 282.068C678.991 286.607 680.503 291.302 683.541 294.783C684.036 295.35 684.585 295.896 685.279 296.212C690.048 298.38 688.31 284.84 687.845 282.739C687.33 280.42 684.959 276.756 681.933 277.888Z" fill="#FFB2A3"/>
<path fill-rule="evenodd" clip-rule="evenodd" d="M686.239 278.622C687.355 279.769 688.123 281.362 688.401 282.615L688.401 282.615C688.643 283.707 689.199 287.665 689.094 291.094C689.042 292.792 688.827 294.456 688.266 295.572C687.982 296.139 687.576 296.631 686.993 296.869C686.398 297.112 685.735 297.045 685.043 296.73C684.232 296.362 683.617 295.736 683.112 295.157L683.112 295.157C679.972 291.559 678.409 286.71 678.88 282.011L678.88 282.011C678.975 281.067 679.246 280.083 679.704 279.25C680.161 278.418 680.828 277.693 681.733 277.354M686.239 278.622C685.117 277.468 683.539 276.679 681.733 277.354ZM685.423 279.416C684.474 278.441 683.353 277.965 682.133 278.421L682.132 278.422C681.564 278.634 681.077 279.118 680.703 279.798C680.331 280.476 680.096 281.307 680.014 282.125C679.574 286.505 681.034 291.044 683.97 294.408M685.423 279.416C686.378 280.398 687.052 281.797 687.289 282.862ZM687.289 282.862C687.512 283.872 688.057 287.735 687.955 291.059C687.904 292.738 687.688 294.183 687.248 295.061C687.032 295.492 686.795 295.719 686.562 295.814C686.341 295.904 686.015 295.92 685.515 295.693L685.514 295.693C684.938 295.431 684.455 294.964 683.97 294.408" fill="#EF7D6E"/>
<path d="M681.925 283.08C681.994 282.757 682.067 282.427 682.243 282.144C682.419 281.861 682.722 281.63 683.062 281.627C683.696 281.621 684.051 282.323 684.218 282.917C684.654 284.462 684.877 286.064 684.878 287.667C684.774 287.493 684.5 287.478 684.329 287.592C684.157 287.705 684.068 287.902 684.009 288.095C683.552 289.594 684.601 291.36 686.167 291.727" fill="#FFB2A3"/>
<path fill-rule="evenodd" clip-rule="evenodd" d="M683.362 282.391C683.237 282.228 683.142 282.196 683.068 282.197L683.067 282.197C682.983 282.198 682.836 282.268 682.727 282.444C682.612 282.63 682.554 282.862 682.483 283.198C682.417 283.506 682.115 283.702 681.807 283.637C681.499 283.571 681.303 283.269 681.368 282.961C681.369 282.956 681.37 282.951 681.371 282.946C681.437 282.638 681.526 282.218 681.759 281.843C682.001 281.453 682.461 281.063 683.056 281.057M683.362 282.391C683.49 282.56 683.596 282.808 683.67 283.071ZM684.269 281.702C684.519 282.031 684.674 282.431 684.767 282.762L684.767 282.762C685.216 284.358 685.446 286.011 685.447 287.666C685.448 287.923 685.277 288.147 685.03 288.216C684.878 288.258 684.72 288.234 684.591 288.159C684.579 288.187 684.567 288.221 684.554 288.262M684.269 281.702C684.015 281.368 683.616 281.052 683.056 281.057ZM683.67 283.071C684.03 284.349 684.24 285.666 684.294 286.989ZM684.294 286.989C684.196 287.016 684.101 287.059 684.014 287.117C683.668 287.346 683.531 287.711 683.465 287.929L683.465 287.929C682.906 289.758 684.166 291.843 686.037 292.282C686.343 292.354 686.65 292.164 686.722 291.858C686.794 291.551 686.604 291.245 686.298 291.173C685.037 290.877 684.197 289.43 684.554 288.262" fill="#EF7D6E"/>
<path d="M685.219 276.866C685.442 273.246 686.018 269.622 686.928 266.261C688.372 260.93 691.632 256.007 696.644 253.294C702.179 250.298 708.865 249.729 714.882 251.044C719.323 252.015 723.567 254.436 726.158 258.194C728.918 262.196 729.176 268.234 729.565 272.954C730.139 279.907 729.54 286.993 727.732 293.744C726.257 299.247 723.805 304.716 719.886 308.968C716.797 312.32 712.647 314.843 708.008 314.959C707.276 314.977 706.544 314.936 705.82 314.842C700.698 314.166 696.479 310.797 693.445 306.862C688.91 300.978 686.302 293.463 685.437 286.046C685.095 283.102 685.026 279.986 685.219 276.866Z" fill="#FFB2A3"/>
<path fill-rule="evenodd" clip-rule="evenodd" d="M714.76 251.6C708.854 250.309 702.311 250.874 696.915 253.795C692.07 256.418 688.891 261.194 687.478 266.41C686.579 269.731 686.008 273.317 685.787 276.901L685.787 276.901C685.596 279.99 685.665 283.072 686.003 285.98C686.859 293.317 689.437 300.728 693.896 306.514C696.88 310.385 700.979 313.628 705.894 314.277C706.59 314.368 707.292 314.407 707.994 314.389C712.431 314.278 716.444 311.862 719.467 308.582C723.304 304.419 725.721 299.045 727.182 293.596C728.973 286.911 729.566 279.891 728.997 273.001L729.565 272.954L728.997 273.001C728.965 272.615 728.935 272.221 728.903 271.822C728.742 269.764 728.568 267.553 728.189 265.404C727.737 262.838 727.002 260.421 725.689 258.518L725.689 258.518C723.197 254.903 719.093 252.548 714.76 251.6ZM696.373 252.793C702.047 249.721 708.876 249.148 715.004 250.487L715.004 250.487C719.554 251.482 723.937 253.969 726.627 257.871C728.074 259.969 728.848 262.572 729.312 265.206C729.701 267.415 729.879 269.689 730.04 271.747C730.071 272.143 730.102 272.53 730.133 272.908C730.712 279.924 730.108 287.076 728.282 293.891L728.282 293.891C726.793 299.45 724.307 305.012 720.305 309.354L719.886 308.968L720.305 309.354C717.149 312.779 712.863 315.407 708.023 315.528C707.26 315.547 706.498 315.505 705.747 315.407L705.746 315.407C700.417 314.704 696.077 311.209 692.994 307.21L692.994 307.21C688.382 301.227 685.746 293.609 684.871 286.112L684.871 286.112C684.525 283.132 684.455 279.982 684.65 276.831M696.373 252.793L696.373 252.793ZM696.373 252.793C691.195 255.596 687.854 260.666 686.379 266.112ZM686.379 266.112L686.379 266.112ZM686.379 266.112C685.458 269.513 684.875 273.175 684.65 276.831Z" fill="#EF7D6E"/>
<path d="M703.894 259.1C707.698 262.363 709.206 266.876 713.109 270.093C717.709 273.885 723.887 275.455 729.669 274.657C729.638 274.089 729.611 273.521 729.565 272.954C729.176 268.234 728.918 262.196 726.158 258.194C723.567 254.436 719.323 252.014 714.882 251.044C708.865 249.729 702.52 250.315 696.631 252.592C694.486 253.422 694.466 255.987 693.71 256.573C697.183 256.114 701.339 256.909 703.894 259.1Z" fill="#EF7D6E"/>
<path d="M733.544 272.759C734.623 265.658 734.941 258.347 732.059 251.608C729.587 245.829 724.757 241.083 718.934 238.431C715.815 237.01 712.322 236.737 708.901 236.479C704.962 236.182 700.975 236.461 697.123 237.32C694.938 237.807 692.754 238.498 690.953 239.791C689.423 240.889 688.631 242.227 687.896 243.875C687.094 245.677 685.595 244.707 684.378 246.123C683.568 247.068 683.368 248.355 683.2 249.573C682.525 254.456 681.267 259.59 681.139 264.511C681.091 266.317 681.375 268.229 681.431 270.06C681.506 272.525 681.719 274.346 682.217 276.765C682.773 276.71 683.395 276.801 683.874 276.98C684.206 278.838 684.56 285.405 684.56 285.405H686.925C686.925 285.405 686.634 278.841 686.69 277.81C686.843 275.046 686.138 272.241 688.183 270.117C689.746 268.493 694.882 262.538 694.049 256.639C698.446 255.601 702.256 255.095 706.44 257.308C710.059 259.222 712.932 262.199 716.13 264.723C719.328 267.246 724.149 269.285 728.266 269.068C728.275 272.042 727.9 285.405 727.9 285.405H729.933L730.696 281.057C730.696 281.057 730.882 276.699 733.126 277.016C733.446 275.31 733.28 274.502 733.544 272.759Z" fill="#2D3644"/>
<path d="M707.705 295.733C706.677 295.39 705.568 294.988 704.996 294.092C704.457 293.246 704.533 292.177 704.627 291.186C704.987 287.413 705.347 283.64 705.707 279.868" fill="#FFB2A3"/>
<path fill-rule="evenodd" clip-rule="evenodd" d="M705.761 279.301C706.074 279.331 706.304 279.609 706.274 279.922C706.085 281.905 705.896 283.887 705.707 285.87C705.536 287.659 705.365 289.449 705.194 291.24M705.761 279.301C705.448 279.271 705.169 279.5 705.14 279.814ZM705.14 279.814C704.95 281.796 704.761 283.779 704.572 285.761ZM704.572 285.761C704.402 287.552 704.231 289.342 704.06 291.132ZM704.06 291.132L704.06 291.132ZM705.194 291.24C705.097 292.264 705.059 293.131 705.476 293.786C705.923 294.484 706.82 294.837 707.885 295.193C708.184 295.293 708.345 295.615 708.245 295.914C708.146 296.212 707.823 296.373 707.525 296.274C706.534 295.943 705.214 295.493 704.516 294.399L704.516 294.398C703.855 293.362 703.969 292.089 704.06 291.132" fill="#EF7D6E"/>
<path fill-rule="evenodd" clip-rule="evenodd" d="M700.477 301.283C700.632 301.008 700.979 300.911 701.253 301.065C702.517 301.776 704.472 302.236 706.556 302.298C708.637 302.361 710.761 302.025 712.362 301.224C712.643 301.083 712.986 301.197 713.126 301.479C713.267 301.76 713.153 302.102 712.872 302.243C711.049 303.154 708.722 303.503 706.522 303.437C704.325 303.371 702.171 302.889 700.694 302.058C700.42 301.904 700.323 301.557 700.477 301.283Z" fill="#EF7D6E"/>
<path d="M696.49 285.377C693.817 285.083 694.283 281.053 696.96 281.348C699.634 281.643 699.166 285.672 696.49 285.377Z" fill="#2D3644"/>
<path d="M688.976 277.396C690.891 276.804 692.781 276.163 694.816 276.152C696.915 276.142 698.697 276.758 700.649 277.412C701.319 277.636 701.671 276.691 701.117 276.343C697.612 274.13 691.988 274.177 688.654 276.65C688.308 276.906 688.479 277.549 688.976 277.396Z" fill="#2D3644"/>
<path d="M717.261 285.441C719.935 285.162 719.493 281.131 716.814 281.41C714.139 281.688 714.582 285.72 717.261 285.441Z" fill="#2D3644"/>
<path d="M725.148 276.758C721.827 274.266 716.206 274.188 712.686 276.381C712.138 276.723 712.47 277.675 713.149 277.453C715.116 276.806 716.866 276.172 718.989 276.226C721.022 276.279 722.906 276.898 724.822 277.502C725.315 277.657 725.496 277.018 725.148 276.758Z" fill="#2D3644"/>
<path fill-rule="evenodd" clip-rule="evenodd" d="M690.583 279.501C689.553 279.501 688.718 280.336 688.718 281.365V288.01C688.718 290.539 690.769 292.59 693.297 292.59H698.756C701.285 292.59 703.336 290.539 703.336 288.01V281.365C703.336 280.336 702.501 279.501 701.471 279.501H690.583ZM688.095 281.365C688.095 279.992 689.209 278.878 690.583 278.878H701.471C702.845 278.878 703.959 279.992 703.959 281.365V288.01C703.959 290.883 701.629 293.213 698.756 293.213H693.297C690.425 293.213 688.095 290.883 688.095 288.01V281.365Z" fill="#2D3644"/>
<path fill-rule="evenodd" clip-rule="evenodd" d="M712.367 279.501C711.337 279.501 710.502 280.336 710.502 281.365V288.01C710.502 290.539 712.553 292.59 715.081 292.59H720.54C723.069 292.59 725.12 290.539 725.12 288.01V281.365C725.12 280.336 724.285 279.501 723.255 279.501H712.367ZM709.879 281.365C709.879 279.992 710.993 278.878 712.367 278.878H723.255C724.629 278.878 725.743 279.992 725.743 281.365V288.01C725.743 290.883 723.413 293.213 720.54 293.213H715.081C712.209 293.213 709.879 290.883 709.879 288.01V281.365Z" fill="#2D3644"/>
<path fill-rule="evenodd" clip-rule="evenodd" d="M710.039 281.017H703.452V280.394H710.039V281.017Z" fill="#2D3644"/>
<path fill-rule="evenodd" clip-rule="evenodd" d="M730.191 280.937H725.209V280.314H730.191V280.937Z" fill="#2D3644"/>
<path fill-rule="evenodd" clip-rule="evenodd" d="M685.348 280.314H688.67V280.937H685.348V280.314Z" fill="#2D3644"/>
<path d="M690.538 375.715C691.743 370.593 688.567 365.465 683.445 364.261C678.324 363.057 673.196 366.232 671.992 371.354C670.787 376.475 673.963 381.603 679.085 382.808C684.206 384.012 689.334 380.836 690.538 375.715Z" fill="#FC678A"/>
<path d="M678.139 375.014H674.366V376.221H678.139V375.014Z" fill="white"/>
<path d="M688.131 375.014H684.358V376.221H688.131V375.014Z" fill="white"/>
<path fill-rule="evenodd" clip-rule="evenodd" d="M677.501 373.01C677.348 373.276 677.235 373.658 677.235 374.222H675.27C675.27 373.39 675.439 372.655 675.798 372.031C676.159 371.403 676.677 370.951 677.271 370.633C678.415 370.023 679.891 369.89 681.309 369.89C682.727 369.89 684.203 370.023 685.347 370.633C685.942 370.951 686.459 371.403 686.82 372.031C687.179 372.655 687.348 373.39 687.348 374.222H685.383C685.383 373.658 685.27 373.276 685.117 373.01C684.966 372.748 684.743 372.538 684.422 372.366C683.735 372 682.683 371.854 681.309 371.854C679.935 371.854 678.883 372 678.196 372.366C677.875 372.538 677.652 372.748 677.501 373.01Z" fill="white"/>
<path d="M741.808 380.284C745.528 376.564 745.528 370.532 741.808 366.812C738.088 363.092 732.056 363.092 728.336 366.812C724.616 370.532 724.616 376.564 728.336 380.284C732.056 384.004 738.088 384.004 741.808 380.284Z" fill="#4BEBAD"/>
<path d="M733.609 370.437V366.664H732.402V370.437H733.609Z" fill="white"/>
<path d="M733.609 380.43V376.656H732.401V380.43H733.609Z" fill="white"/>
<path fill-rule="evenodd" clip-rule="evenodd" d="M735.613 369.799C735.347 369.646 734.965 369.532 734.401 369.532V367.568C735.233 367.568 735.968 367.737 736.592 368.096C737.22 368.457 737.672 368.974 737.99 369.569C738.6 370.712 738.733 372.189 738.733 373.607C738.733 375.025 738.6 376.501 737.99 377.645C737.672 378.239 737.22 378.756 736.592 379.117C735.968 379.476 735.233 379.646 734.401 379.646V377.681C734.965 377.681 735.347 377.567 735.613 377.414C735.875 377.264 736.085 377.04 736.257 376.72C736.623 376.033 736.769 374.981 736.769 373.607C736.769 372.232 736.623 371.18 736.257 370.494C736.085 370.173 735.875 369.95 735.613 369.799Z" fill="white"/>
<path d="M604.354 282.321H479.617V418.865H604.354V282.321Z" fill="#EAEFF8"/>
<path d="M603.223 283.453V417.734H480.749V283.453H603.223ZM605.486 281.189H603.223H480.749H478.486V283.452V417.733V419.996H480.749H603.223H605.486V417.733V283.453V281.189Z" fill="#A5BEFF"/>
<path d="M573.006 303.148H510.965V313.43H573.006V303.148Z" fill="#A5BEFF"/>
<path d="M583.464 329.029H500.507V334.701H583.464V329.029Z" fill="#C9D0FF"/>
<path d="M583.464 341.791H500.507V347.463H583.464V341.791Z" fill="#C9D0FF"/>
<path d="M583.464 354.554H500.507V360.226H583.464V354.554Z" fill="#C9D0FF"/>
<path d="M583.464 367.317H500.507V372.989H583.464V367.317Z" fill="#C9D0FF"/>
<path d="M583.464 380.079H500.507V385.751H583.464V380.079Z" fill="#C9D0FF"/>
<path d="M479.405 284.795V275.405C479.405 268.557 484.977 262.986 491.826 262.986H592.147C598.996 262.986 604.567 268.557 604.567 275.405V284.795H479.405Z" fill="#A5BEFF"/>
<path d="M592.147 264.328C598.264 264.328 603.223 269.287 603.223 275.405V283.453H480.749V275.405C480.749 269.287 485.708 264.328 491.826 264.328H592.147ZM592.147 261.643H491.826C484.237 261.643 478.063 267.816 478.063 275.405V283.453V286.138H480.749H603.223H605.909V283.453V275.405C605.909 267.816 599.735 261.643 592.147 261.643Z" fill="#A5BEFF"/>
<path d="M497.42 272.65C497.42 275.222 495.336 277.306 492.765 277.306C490.193 277.306 488.109 275.222 488.109 272.65C488.109 270.079 490.193 267.994 492.765 267.994C495.335 267.994 497.42 270.078 497.42 272.65Z" fill="#FC678A"/>
<path d="M516.043 272.65C516.043 275.222 513.959 277.306 511.387 277.306C508.817 277.306 506.732 275.222 506.732 272.65C506.732 270.079 508.816 267.994 511.387 267.994C513.958 267.994 516.043 270.078 516.043 272.65Z" fill="#4BEBAD"/>
<path d="M534.665 272.65C534.665 275.222 532.581 277.306 530.009 277.306C527.438 277.306 525.353 275.222 525.353 272.65C525.353 270.079 527.437 267.994 530.009 267.994C532.581 267.994 534.665 270.078 534.665 272.65Z" fill="white"/>
<path d="M586.257 670.294C679.722 670.294 755.49 662.884 755.49 653.743C755.49 644.602 679.722 637.191 586.257 637.191C492.792 637.191 417.024 644.602 417.024 653.743C417.024 662.884 492.792 670.294 586.257 670.294Z" fill="#DFE8F8"/>
<path d="M680.292 452.105H592.481L607.56 396.978H695.371L680.292 452.105Z" fill="#D5DCF2"/>
<path d="M647.599 398.234C647.599 398.556 647.337 398.818 647.015 398.818C646.692 398.818 646.43 398.556 646.43 398.234C646.43 397.911 646.692 397.65 647.015 397.65C647.337 397.65 647.599 397.911 647.599 398.234Z" fill="#000540"/>
<path d="M677.954 449.374H596.314L609.898 399.71H691.538L677.954 449.374Z" fill="#000540"/>
<path d="M605.207 432.858L612.649 405.648H656.694L649.252 432.858H605.207Z" fill="#EAEFF8"/>
<path d="M655.953 406.214L648.82 432.293H605.949L613.082 406.214H655.953ZM657.436 405.082H655.953H613.082H612.218L611.989 405.915L604.856 431.994L604.465 433.424H605.947H648.819H649.683L649.911 432.591L657.044 406.512L657.436 405.082Z" fill="#A5BEFF"/>
<path d="M639.123 425.756L641.657 416.491H619.872L617.337 425.756H639.123Z" fill="#A5BEFF"/>
<path fill-rule="evenodd" clip-rule="evenodd" d="M647.658 413.974H617.161V411.862H647.658V413.974Z" fill="#A5BEFF"/>
<path d="M623.737 444.536L631.18 417.325H675.224L667.784 444.536H623.737Z" fill="#EAEFF8"/>
<path d="M674.485 417.891L667.352 443.971H624.48L631.613 417.891H674.485ZM675.967 416.759H674.485H631.613H630.749L630.521 417.592L623.388 443.672L622.997 445.102H624.479H667.351H668.215L668.443 444.269L675.576 418.189L675.967 416.759Z" fill="#A5BEFF"/>
<path d="M657.654 437.434L660.189 428.168H638.403L635.869 437.434H657.654Z" fill="#A5BEFF"/>
<path fill-rule="evenodd" clip-rule="evenodd" d="M666.188 425.651H635.692V423.54H666.188V425.651Z" fill="#A5BEFF"/>
<path d="M678.118 448.774L679.198 444.825C664.159 429.787 649.121 414.748 634.082 399.71H629.052L678.118 448.774Z" fill="url(#paint0_linear_1_2)"/>
<path d="M682.273 433.585L691.538 399.71H648.398L682.273 433.585Z" fill="url(#paint1_linear_1_2)"/>
<path d="M569.607 458.479H677.68V452.244H574.589C571.837 452.244 569.607 454.475 569.607 457.227V458.479Z" fill="#AFBADB"/>
<path d="M652.846 456.986V458.479H677.679V452.244H657.588C654.97 452.244 652.846 454.367 652.846 456.986Z" fill="#8B9BCC"/>
<path d="M729.412 466.061H662.949V650.132H729.412V466.061Z" fill="#A5BEFF"/>
<path d="M671.887 466.061H662.949V650.132H671.887V466.061Z" fill="#D4D9FF"/>
<path d="M662.949 472.511H671.887L729.412 466.061H662.949V472.511Z" fill="#5B6AD4"/>
<path d="M584.515 466.061H518.051V650.132H584.515V466.061Z" fill="#A5BEFF"/>
<path d="M526.99 466.061H518.051V650.132H526.99V466.061Z" fill="#D4D9FF"/>
<path d="M518.051 472.511H526.989L584.514 466.061H518.051V472.511Z" fill="#5B6AD4"/>
<path d="M742.635 458.77H496.259V466.121H742.635V458.77Z" fill="#A5BEFF"/>
<path d="M742.635 458.77H652.483V466.121H742.635V458.77Z" fill="#5B6AD4"/>
<path d="M490.138 323.003C490.125 322.866 490.122 322.727 490.107 322.59C490.035 321.94 489.94 321.291 489.813 320.647C488.741 315.171 483.309 304.282 476.152 307.346C472.029 309.112 467.364 313.657 464.693 317.225C461.427 321.589 461.074 328.725 461.633 333.902C462.316 340.242 464.347 366.09 467.132 371.826C472.542 382.967 481.665 402.975 489.521 412.438C490.165 395.904 489.564 349.404 490.138 331.915V323.003Z" fill="#522525"/>
<path d="M459.319 328.559H433.686V432.15H459.319V328.559Z" fill="#522525"/>
<path d="M560.789 458.77C560.789 458.77 560.398 447.65 575.049 447.65C589.7 447.65 591.165 456.704 591.165 458.77C591.165 458.77 560.161 458.141 560.789 458.77Z" fill="#000540"/>
<path d="M548.906 451.332L560.262 442.176L574.832 444.685L582.984 449.85C582.984 449.85 587.966 455.77 588.685 455.755C589.403 455.74 588.559 457.199 585.76 457.149C582.959 457.098 579.373 452.8 579.373 452.8L572.311 449.68C572.311 449.68 565.467 448.541 564.083 449.268C562.699 449.996 566.108 454.124 566.108 454.124L572.22 453.648C572.22 453.648 576.344 452.202 578.15 452.824C579.956 453.447 579.272 456.299 579.272 456.299L576.676 457.654L549.745 457.894L548.906 451.332Z" fill="#FFB2A3"/>
<path fill-rule="evenodd" clip-rule="evenodd" d="M559.87 441.691C560.01 441.578 560.191 441.531 560.368 441.561L574.937 444.07C575.018 444.084 575.096 444.114 575.165 444.158L583.318 449.323C583.372 449.357 583.42 449.399 583.461 449.448L582.984 449.85C583.461 449.448 583.461 449.448 583.461 449.448L583.462 449.449L583.517 449.513C583.553 449.556 583.606 449.619 583.675 449.7C583.812 449.861 584.008 450.091 584.246 450.367C584.723 450.92 585.364 451.655 586.028 452.39C586.693 453.126 587.372 453.853 587.926 454.392C588.204 454.663 588.439 454.874 588.618 455.014C588.694 455.074 588.749 455.112 588.787 455.135C588.951 455.149 589.147 455.205 589.311 455.362C589.536 455.577 589.575 455.859 589.54 456.074C589.479 456.448 589.195 456.753 588.918 456.963C588.308 457.424 587.249 457.799 585.748 457.772C584.901 457.757 584.047 457.425 583.275 456.992C582.495 456.554 581.749 455.983 581.107 455.427C580.679 455.055 580.292 454.686 579.966 454.358C579.988 454.494 580.002 454.627 580.01 454.752C580.042 455.201 580.008 455.621 579.969 455.924C579.949 456.076 579.928 456.203 579.91 456.292C579.902 456.337 579.894 456.373 579.889 456.399L579.882 456.43L579.88 456.439L579.879 456.442L579.879 456.443C579.879 456.443 579.878 456.444 579.272 456.299L579.879 456.443C579.837 456.619 579.72 456.768 579.561 456.852L576.965 458.207C576.878 458.252 576.781 458.277 576.682 458.277L549.75 458.518C549.434 458.52 549.166 458.286 549.126 457.973L548.288 451.411C548.26 451.196 548.346 450.982 548.515 450.846L559.87 441.691ZM578.714 455.886C578.72 455.848 578.726 455.807 578.732 455.763C578.764 455.512 578.789 455.179 578.766 454.838C578.716 454.116 578.479 453.598 577.947 453.414C577.616 453.3 577.121 453.266 576.508 453.312C575.909 453.357 575.257 453.473 574.645 453.611C574.036 453.749 573.479 453.905 573.074 454.028C572.872 454.09 572.708 454.142 572.596 454.179C572.54 454.198 572.497 454.212 572.468 454.222L572.436 454.233L572.428 454.236L572.427 454.236C572.427 454.236 572.427 454.236 572.427 454.236C572.376 454.254 572.322 454.265 572.269 454.27L566.156 454.745C565.954 454.761 565.756 454.677 565.627 454.521L566.108 454.124C565.627 454.521 565.627 454.521 565.627 454.521L565.623 454.517L565.615 454.507L565.585 454.47C565.559 454.438 565.522 454.391 565.475 454.332C565.381 454.214 565.25 454.045 565.097 453.841C564.792 453.434 564.397 452.877 564.042 452.292C563.695 451.718 563.359 451.07 563.211 450.489C563.137 450.199 563.095 449.871 563.162 449.555C563.236 449.211 563.439 448.902 563.792 448.716C564.068 448.571 564.418 448.499 564.759 448.458C565.114 448.415 565.523 448.4 565.956 448.402C566.821 448.407 567.829 448.483 568.78 448.581C569.733 448.679 570.641 448.8 571.309 448.896C571.644 448.944 571.919 448.986 572.111 449.016C572.207 449.031 572.282 449.043 572.334 449.052L572.393 449.061L572.413 449.065C572.413 449.065 572.414 449.065 572.311 449.68L572.413 449.065C572.465 449.073 572.516 449.088 572.563 449.11L579.625 452.229C579.712 452.268 579.79 452.326 579.851 452.4L579.853 452.402L579.859 452.409L579.887 452.442C579.913 452.472 579.951 452.516 580 452.572C580.1 452.685 580.246 452.848 580.431 453.045C580.801 453.438 581.322 453.961 581.925 454.484C582.53 455.009 583.205 455.522 583.886 455.904C584.574 456.291 585.218 456.515 585.771 456.525C586.864 456.545 587.578 456.315 587.974 456.091C587.932 456.061 587.89 456.029 587.849 455.997C587.618 455.816 587.346 455.568 587.056 455.286C586.473 454.719 585.772 453.968 585.102 453.226C584.43 452.482 583.781 451.739 583.301 451.182C583.061 450.903 582.863 450.671 582.724 450.508C582.658 450.43 582.606 450.369 582.569 450.325L574.603 445.278L560.434 442.839L549.569 451.599L550.293 457.265L576.521 457.031L578.714 455.886ZM576.212 452.086L572.132 450.283C572.083 450.275 572.01 450.263 571.918 450.249C571.73 450.219 571.46 450.178 571.131 450.131C570.473 450.036 569.583 449.918 568.652 449.822C567.718 449.726 566.756 449.654 565.949 449.65C565.545 449.647 565.192 449.662 564.908 449.697C564.622 449.731 564.457 449.779 564.382 449.816C564.382 449.816 564.382 449.817 564.382 449.817C564.372 449.866 564.369 449.98 564.42 450.18C564.521 450.577 564.778 451.097 565.11 451.646C565.435 452.184 565.805 452.704 566.096 453.094C566.209 453.244 566.309 453.374 566.389 453.476L572.093 453.032C572.123 453.022 572.161 453.009 572.206 452.994C572.326 452.955 572.499 452.899 572.712 452.834C573.136 452.706 573.724 452.54 574.371 452.394C574.952 452.263 575.592 452.145 576.212 452.086ZM588.831 455.159C588.831 455.159 588.827 455.158 588.82 455.154C588.827 455.157 588.831 455.159 588.831 455.159Z" fill="#EF7D6E"/>
<path d="M485.909 396.223L507.132 434.421L553.204 443.936L553.645 458.571C553.645 458.571 507.438 459.5 504.93 458.512C502.421 457.525 456.635 420.996 456.635 420.996L485.909 396.223Z" fill="#201923"/>
<path d="M598.908 636.279C597.557 636.279 595.785 635.734 593.639 634.661C593.037 634.361 592.307 634.045 591.494 633.692C586.987 631.742 580.199 628.805 578.605 621.405C579.968 618.915 578.789 613.885 578.738 613.665C578.622 613.336 569.483 588.356 568.061 583.653C570.019 582.998 578.451 581.043 584.133 579.781L591.123 615.912C591.132 615.959 591.146 616.006 591.167 616.05C591.218 616.165 596.341 627.413 601.505 634.472C601.137 635.702 600.307 636.279 598.908 636.279Z" fill="#FFB2A3"/>
<path d="M583.646 580.523L590.514 616.03C590.532 616.125 590.562 616.217 590.602 616.305C590.812 616.767 595.684 627.467 600.814 634.574C600.498 635.34 599.916 635.661 598.908 635.661C597.653 635.661 595.974 635.139 593.914 634.11C593.291 633.799 592.571 633.487 591.737 633.126C587.391 631.246 580.869 628.422 579.256 621.487C580.537 618.788 579.471 614.081 579.337 613.522C579.326 613.475 579.313 613.43 579.295 613.385C579.203 613.132 570.702 589.895 568.833 584.063C571.187 583.379 577.577 581.875 583.646 580.523ZM584.618 579.042C584.618 579.042 567.212 582.889 567.324 583.326C568.122 586.445 578.137 613.809 578.137 613.809C578.137 613.809 579.399 619.095 577.951 621.296C579.792 630.576 589.419 633.243 593.362 635.215C594.413 635.741 596.843 636.897 598.908 636.897C600.418 636.897 601.735 636.279 602.175 634.342C596.931 627.273 591.727 615.795 591.727 615.795L584.618 579.042Z" fill="#EF7D6E"/>
<path d="M618.64 647.548C611.585 647.285 597.954 646.805 596.706 646.979C595.008 647.224 591.627 636.583 587.997 634.406C585.979 633.186 581.117 633.693 577.196 634.39C576.631 629.701 577.112 625.389 577.953 621.297C593.631 623.795 595.068 628.934 597.186 632.23C598.29 633.943 600.379 634.35 602.179 634.335C603.05 636.193 603.833 637.704 604.443 638.517C607.346 642.394 612.428 641.9 615.824 642.873C617.741 643.425 618.422 645.69 618.64 647.548Z" fill="#48404C"/>
<path d="M596.706 646.984C595.012 647.225 591.627 636.58 587.997 634.402C585.979 633.192 581.121 633.701 577.203 634.391C577.383 635.889 577.662 637.421 578.077 638.997C580.495 648.191 580.978 650.127 580.978 650.127H585.333L584.367 637.546C584.367 637.546 589.206 633.676 591.624 641.903C594.043 650.129 590.655 649.645 596.947 649.646C603.237 649.647 618.721 650.132 618.721 650.132C618.721 650.132 618.81 648.961 618.641 647.552C611.581 647.287 597.955 646.805 596.706 646.984Z" fill="#201923"/>
<path d="M477.074 479.422C477.074 479.422 465.234 505.55 479.063 514.262C492.893 522.973 547.088 524.916 547.088 524.916L557.241 592.662L591.599 579.601L568.944 509.829C567.68 505.937 564.615 502.894 560.714 501.658L508.866 485.232L475.962 477.969L477.074 479.422Z" fill="#201923"/>
<path d="M564.96 636.279C563.609 636.279 561.836 635.734 559.69 634.661C559.088 634.361 558.358 634.045 557.545 633.692C553.04 631.743 546.259 628.808 544.659 621.419C546.248 618.929 546.905 616.571 546.919 613.35C546.942 607.685 546.365 598.581 543.502 587.201C545.414 586.556 553.709 584.633 559.401 583.367L557.163 615.752C557.156 615.855 557.175 615.957 557.216 616.05C557.268 616.165 562.391 627.413 567.555 634.471C567.189 635.702 566.357 636.279 564.96 636.279Z" fill="#FFB2A3"/>
<path d="M558.727 584.15L556.545 615.709C556.531 615.914 556.568 616.119 556.653 616.305C556.863 616.767 561.735 627.467 566.864 634.574C566.549 635.34 565.967 635.661 564.958 635.661C563.704 635.661 562.024 635.139 559.965 634.11C559.342 633.799 558.622 633.487 557.788 633.126C553.452 631.249 546.948 628.434 545.317 621.531C546.875 619.016 547.522 616.607 547.536 613.352C547.56 607.745 546.998 598.793 544.243 587.62C546.508 586.956 552.731 585.489 558.727 584.15ZM560.073 582.585C560.073 582.585 542.667 586.432 542.78 586.869C543.577 589.988 546.352 600.985 546.3 613.346C546.285 616.89 545.449 619.094 544.002 621.294C545.843 630.575 555.47 633.242 559.413 635.214C560.464 635.74 562.894 636.896 564.958 636.896C566.47 636.896 567.785 636.278 568.226 634.341C562.982 627.272 557.778 615.794 557.778 615.794L560.073 582.585Z" fill="#EF7D6E"/>
<path d="M584.691 647.548C577.636 647.285 564.004 646.805 562.757 646.979C561.059 647.224 557.677 636.583 554.048 634.406C552.03 633.186 547.168 633.693 543.247 634.39C542.682 629.701 543.163 625.389 544.004 621.297C559.682 623.795 561.117 628.934 563.237 632.23C564.341 633.943 566.43 634.35 568.231 634.335C569.102 636.193 569.885 637.704 570.494 638.517C573.397 642.394 578.479 641.9 581.875 642.873C583.791 643.425 584.473 645.69 584.691 647.548Z" fill="#48404C"/>
<path d="M562.757 646.984C561.063 647.225 557.677 636.58 554.048 634.402C552.03 633.192 547.172 633.701 543.254 634.391C543.434 635.889 543.714 637.421 544.127 638.997C546.546 648.191 547.029 650.127 547.029 650.127H551.384L550.418 637.546C550.418 637.546 555.257 633.676 557.675 641.903C560.094 650.129 556.706 649.645 562.998 649.646C569.288 649.647 584.772 650.132 584.772 650.132C584.772 650.132 584.861 648.961 584.692 647.552C577.633 647.287 564.007 646.805 562.757 646.984Z" fill="#201923"/>
<path d="M458.158 487.93C458.158 487.93 446.317 514.058 460.147 522.77C473.977 531.482 531.843 530.769 531.843 530.769L541.996 598.515L570.33 588.111L555.823 512.138C555.823 512.138 557.457 501.715 536.281 500.371C519.352 499.295 489.95 493.74 489.95 493.74L457.047 486.478L458.158 487.93Z" fill="#352C38"/>
<path d="M466.244 371.214C466.244 371.214 480.657 395.005 483.495 404.448C486.332 413.891 492.704 497.124 492.704 497.124L511.918 489.348L496.443 451.989L497.286 412.123L473.716 371.465L466.244 371.214Z" fill="#352C38"/>
<path d="M472.553 379.503L474.915 373.166L481.113 381.98L477.433 382.949L484.116 389.632L486.756 416.243L484.116 406.388L472.553 379.503Z" fill="#5C4963"/>
<path d="M456.477 380.096L456.775 358.315L467.238 359.234L472.731 359.868C472.731 359.868 474.548 383.037 476.224 387.904C477.9 392.772 482.853 405.733 482.853 405.733L456.477 380.096Z" fill="#FFB2A3"/>
<path fill-rule="evenodd" clip-rule="evenodd" d="M456.357 357.852C456.486 357.735 456.657 357.678 456.83 357.693L467.293 358.613L467.31 358.615L472.803 359.248C473.099 359.282 473.33 359.522 473.353 359.819L472.731 359.868C473.353 359.819 473.353 359.819 473.353 359.819L473.374 360.079C473.387 360.25 473.408 360.501 473.434 360.822C473.487 361.464 473.564 362.387 473.663 363.51C473.859 365.756 474.138 368.801 474.47 371.997C474.801 375.193 475.184 378.537 475.589 381.382C475.996 384.249 476.417 386.55 476.813 387.701C477.648 390.125 479.303 394.574 480.751 398.425C481.474 400.348 482.146 402.12 482.636 403.411C482.881 404.056 483.081 404.581 483.22 404.945L483.435 405.51C483.435 405.51 483.436 405.511 482.853 405.733L483.435 405.51C483.54 405.784 483.44 406.094 483.196 406.255C482.951 406.415 482.628 406.385 482.418 406.181L456.043 380.543C455.92 380.423 455.851 380.258 455.854 380.087L456.152 358.306C456.154 358.133 456.229 357.968 456.357 357.852ZM481.268 403.323C480.803 402.096 480.213 400.537 479.583 398.864C478.136 395.017 476.476 390.551 475.634 388.107C475.192 386.825 474.758 384.405 474.353 381.558C473.946 378.69 473.561 375.329 473.229 372.125C472.896 368.921 472.616 365.869 472.42 363.619C472.321 362.493 472.244 361.568 472.191 360.924C472.175 360.734 472.162 360.568 472.15 360.429L467.175 359.855L457.39 358.995L457.105 379.835L481.268 403.323Z" fill="#EF7D6E"/>
<path d="M462.476 368.328C465.068 371.761 468.395 374.837 471.796 377.467C472.941 378.352 474.118 379.149 475.321 379.865C474.257 371.398 473.41 359.983 473.398 359.82C473.374 359.499 473.127 359.241 472.807 359.204L467.255 358.567L456.793 357.647C456.556 357.641 456.352 357.765 456.228 357.949C458.089 361.248 460.192 365.303 462.476 368.328Z" fill="#EF7D6E"/>
<path d="M460.65 464.773C460.65 464.773 451.432 484.256 449.692 491.347C457.827 499.312 469.698 501.348 476.934 501.158C489.018 500.839 501.359 494.793 501.359 494.793L487.08 416.719L455.49 372.853L437.136 382.558L440.103 408.886L460.65 464.773Z" fill="#352C38"/>
<path d="M460.65 464.773C460.65 464.773 457.907 470.569 455.133 476.988C459.199 482.549 463.495 487.927 468.329 492.861C471.185 495.776 474.249 498.607 477.527 501.133C485.139 500.817 492.768 498.31 497.275 496.545C495.67 492.963 470.137 448.349 470.137 448.349C470.137 448.349 454.787 391.184 447.359 377.153L437.137 382.558L440.104 408.886L460.65 464.773Z" fill="#201923"/>
<path d="M484.116 406.388L478.116 390.946C478.059 391.764 476.994 392.752 475.859 393.372C471.832 395.576 467.032 390.157 467.032 390.157L477.291 406.343L486.755 416.244L484.116 406.388Z" fill="white"/>
<path d="M456.03 368.906L486.756 416.243L459.601 394.309L461.628 385.588L456.817 387.33L452.051 374.734L456.03 368.906Z" fill="#5C4963"/>
<path d="M490.48 491.784C490.48 491.784 494.764 501.04 501.331 501.015C507.898 500.991 513.436 502.466 513.436 502.466C513.436 502.466 516.253 503.339 517.217 502.755C518.181 502.171 517.713 501.404 517.713 501.404C517.713 501.404 521.453 502.289 522.067 502.861C522.68 503.432 524.748 503.854 525.983 503.16C527.218 502.467 527.218 502.466 527.218 502.466C527.218 502.466 528.765 502.847 529.366 501.843C529.967 500.838 520.304 494.98 518.808 493.946C517.311 492.913 506.886 490.147 506.886 490.147L497.536 488.777L490.48 491.784Z" fill="#FFB2A3"/>
<path fill-rule="evenodd" clip-rule="evenodd" d="M497.292 488.203C497.397 488.158 497.513 488.143 497.627 488.16L506.977 489.53C507 489.533 507.023 489.538 507.046 489.544L506.886 490.147C507.046 489.544 507.046 489.544 507.046 489.544L507.165 489.576C507.242 489.596 507.355 489.627 507.499 489.666C507.788 489.744 508.202 489.856 508.704 489.994C509.707 490.27 511.06 490.649 512.462 491.061C513.862 491.472 515.315 491.917 516.515 492.326C517.114 492.53 517.657 492.728 518.101 492.909C518.531 493.084 518.914 493.261 519.162 493.433C519.436 493.622 519.997 493.981 520.736 494.454C520.977 494.608 521.236 494.774 521.51 494.95C522.618 495.661 523.953 496.525 525.224 497.389C526.492 498.251 527.711 499.124 528.581 499.852C529.011 500.212 529.382 500.558 529.631 500.864C529.753 501.015 529.872 501.188 529.945 501.374C530.015 501.555 530.081 501.863 529.901 502.163C529.445 502.925 528.651 503.118 528.107 503.154C527.825 503.172 527.57 503.152 527.389 503.129C527.367 503.126 527.347 503.123 527.327 503.12L526.288 503.704C525.51 504.141 524.533 504.202 523.717 504.104C523.3 504.054 522.898 503.959 522.55 503.832C522.213 503.71 521.881 503.541 521.641 503.317C521.643 503.319 521.628 503.306 521.588 503.28C521.549 503.256 521.496 503.227 521.429 503.194C521.293 503.127 521.117 503.054 520.909 502.976C520.494 502.821 519.986 502.662 519.487 502.517C519.098 502.405 518.72 502.303 518.403 502.22C518.304 502.605 518.039 502.986 517.54 503.288C517.149 503.526 516.648 503.58 516.22 503.58C515.77 503.58 515.287 503.52 514.857 503.444C514.423 503.368 514.024 503.273 513.734 503.197C513.589 503.16 513.47 503.126 513.386 503.102C513.345 503.09 513.312 503.081 513.289 503.074L513.266 503.067L513.262 503.066L513.217 503.054C513.177 503.044 513.117 503.029 513.037 503.009C512.877 502.97 512.639 502.913 512.333 502.845C511.721 502.71 510.834 502.528 509.744 502.347C507.562 501.985 504.572 501.627 501.333 501.639C497.754 501.652 494.88 499.148 492.96 496.804C491.988 495.616 491.228 494.43 490.713 493.543C490.455 493.099 490.256 492.728 490.122 492.467C490.055 492.336 490.004 492.232 489.969 492.161C489.952 492.125 489.938 492.097 489.929 492.078L489.918 492.055L489.915 492.049L489.915 492.047C489.914 492.047 489.914 492.046 490.48 491.784L489.914 492.046C489.843 491.893 489.837 491.718 489.898 491.56C489.959 491.403 490.08 491.276 490.236 491.21L497.292 488.203ZM491.336 492.097C491.454 492.32 491.606 492.598 491.791 492.916C492.284 493.764 493.006 494.891 493.926 496.014C495.79 498.291 498.341 500.402 501.329 500.391C504.657 500.379 507.72 500.747 509.948 501.117C511.063 501.301 511.972 501.487 512.603 501.627C512.919 501.697 513.165 501.756 513.334 501.797C513.418 501.818 513.483 501.834 513.527 501.846L513.578 501.859L513.591 501.862L513.595 501.863L513.596 501.864C513.596 501.864 513.597 501.864 513.436 502.466L513.596 501.864C513.6 501.865 513.604 501.866 513.607 501.867C513.612 501.868 513.616 501.869 513.62 501.871L513.626 501.872L513.647 501.879C513.666 501.884 513.694 501.893 513.732 501.903C513.806 501.925 513.915 501.955 514.048 501.99C514.317 502.06 514.682 502.147 515.073 502.215C515.467 502.285 515.87 502.333 516.219 502.332C516.59 502.332 516.803 502.276 516.894 502.221C517.201 502.035 517.202 501.89 517.203 501.854L517.203 501.852C517.203 501.812 517.194 501.773 517.183 501.742C517.179 501.728 517.174 501.719 517.172 501.715C517.05 501.502 517.064 501.237 517.208 501.038C517.356 500.834 517.612 500.739 517.857 500.797L517.713 501.404C517.857 500.797 517.857 500.797 517.857 500.797L517.869 500.8L517.901 500.808C517.929 500.814 517.971 500.824 518.023 500.837C518.129 500.863 518.279 500.9 518.461 500.947C518.826 501.04 519.319 501.17 519.833 501.319C520.346 501.467 520.888 501.636 521.346 501.808C521.575 501.893 521.792 501.983 521.978 502.074C522.152 502.159 522.346 502.268 522.492 502.405C522.559 502.467 522.716 502.565 522.977 502.66C523.228 502.751 523.535 502.826 523.866 502.866C524.546 502.947 525.221 502.873 525.677 502.616L526.912 501.923C526.95 501.903 526.991 501.885 527.217 502.465L526.991 501.885C527.11 501.839 527.24 501.83 527.364 501.86L527.366 501.861C527.366 501.861 527.366 501.861 527.366 501.861C527.366 501.861 527.367 501.861 527.218 502.466L527.366 501.861L527.37 501.861C527.377 501.863 527.388 501.865 527.404 501.869C527.437 501.875 527.486 501.884 527.549 501.892C527.676 501.908 527.846 501.921 528.025 501.909C528.306 501.89 528.533 501.82 528.691 501.687C528.682 501.675 528.672 501.663 528.662 501.65C528.491 501.44 528.194 501.155 527.78 500.809C526.96 500.123 525.783 499.278 524.523 498.421C523.266 497.566 521.942 496.709 520.837 496C520.574 495.831 520.322 495.67 520.087 495.519C519.338 495.041 518.747 494.662 518.453 494.46C518.327 494.373 518.057 494.238 517.63 494.064C517.218 493.896 516.701 493.707 516.113 493.507C514.937 493.107 513.503 492.667 512.11 492.258C510.718 491.849 509.371 491.472 508.373 491.197C507.874 491.059 507.462 490.948 507.175 490.87C507.031 490.832 506.919 490.801 506.842 490.781L506.76 490.759L497.619 489.42L491.336 492.097Z" fill="#EF7D6E"/>
<path d="M510.148 498.286C511.138 499.259 512.494 499.733 513.752 500.274C515.338 500.956 517.014 501.872 518.709 502.201C519.168 502.29 519.422 501.714 519.026 501.447C517.722 500.568 516.105 500.092 514.65 499.507C513.23 498.935 511.75 498.177 510.197 498.166C510.137 498.166 510.105 498.243 510.148 498.286Z" fill="#EF7D6E"/>
<path d="M516.325 496.166C518.286 497.338 520.286 498.423 522.267 499.562C524.039 500.582 525.752 501.961 527.651 502.713C528.057 502.874 528.352 502.281 528.063 502.003C526.521 500.515 524.343 499.48 522.48 498.438C520.492 497.325 518.627 496.44 516.371 496.053C516.307 496.042 516.261 496.128 516.325 496.166Z" fill="#EF7D6E"/>
<path d="M454.848 388.564L467.008 451.945L505.229 487.436L488.328 503.985L444.019 459.774C444.019 459.774 429.707 396.288 433.205 387.288C436.047 379.973 452.722 370.901 454.848 388.564Z" fill="#413645"/>
<path d="M438.729 335.903C439.592 342.769 443.283 348.372 448.351 353.122C453.902 358.328 459.596 362.981 466.889 365.85C470.211 367.157 473.355 368.015 476.927 368.345C478.278 368.47 479.023 368.674 480.314 368.004C481.591 367.343 482.659 366.334 483.473 365.194C484.728 363.436 485.436 361.382 486.078 359.344C487.237 355.659 488.235 351.905 488.56 348.071C488.788 345.38 488.677 342.646 488.068 340.005C487.784 338.773 487.376 337.789 486.76 336.705C486.147 335.626 486.266 334.342 486.18 333.14C485.961 330.055 485.098 327.035 483.808 324.205C482.69 321.75 481.366 318.845 479.836 316.634C476.352 311.6 468.893 308.821 462.812 308.77C455.789 308.71 448.863 311.924 444.384 317.09C439.905 322.256 437.891 329.244 438.729 335.903Z" fill="#FFB2A3"/>
<path fill-rule="evenodd" clip-rule="evenodd" d="M462.817 308.16C455.613 308.098 448.517 311.391 443.923 316.69ZM462.807 309.38C455.965 309.322 449.209 312.457 444.845 317.49C440.483 322.521 438.517 329.335 439.335 335.827L439.335 335.827C440.174 342.506 443.766 347.988 448.768 352.677L448.768 352.677C454.304 357.868 459.929 362.456 467.112 365.282C470.393 366.573 473.481 367.414 476.983 367.738C477.177 367.756 477.354 367.774 477.519 367.791C478.55 367.899 479.084 367.955 480.033 367.463L480.034 367.463C481.21 366.853 482.208 365.916 482.976 364.839L482.976 364.839C484.169 363.168 484.854 361.199 485.495 359.161L485.496 359.161C486.651 355.489 487.633 351.786 487.952 348.019C488.175 345.378 488.066 342.71 487.474 340.142L488.068 340.005L487.474 340.142C487.474 340.142 487.474 340.142 487.474 340.142C487.205 338.975 486.82 338.046 486.23 337.007L486.76 336.705L486.23 337.007C486.23 337.007 486.23 337.007 486.23 337.007C485.863 336.361 485.727 335.673 485.665 335.026C485.634 334.703 485.622 334.38 485.611 334.073C485.61 334.035 485.609 333.997 485.607 333.959C485.598 333.689 485.59 333.434 485.572 333.183L485.572 333.183C485.358 330.182 484.518 327.233 483.253 324.458L483.253 324.458C482.129 321.99 480.827 319.138 479.335 316.981C477.676 314.584 475.045 312.693 472.055 311.393C469.067 310.095 465.763 309.405 462.807 309.38L462.807 309.38ZM472.541 310.274C475.672 311.635 478.513 313.65 480.338 316.287L479.851 316.624L480.338 316.287C481.901 318.545 483.245 321.495 484.355 323.934L484.363 323.952C485.678 326.836 486.563 329.927 486.789 333.096C486.809 333.372 486.818 333.652 486.827 333.919C486.828 333.957 486.829 333.994 486.831 334.031C486.841 334.337 486.853 334.628 486.88 334.911C486.934 335.476 487.045 335.97 487.291 336.404L487.291 336.404C487.931 337.532 488.364 338.571 488.663 339.868L488.663 339.868C489.289 342.583 489.4 345.381 489.168 348.122L489.168 348.122C488.838 352.024 487.824 355.829 486.66 359.527C486.019 361.564 485.287 363.703 483.969 365.548C483.11 366.753 481.972 367.833 480.595 368.546C479.307 369.214 478.424 369.118 477.364 369.004C477.205 368.986 477.041 368.969 476.871 368.953L476.871 368.953C473.229 368.616 470.028 367.74 466.665 366.418C459.263 363.506 453.501 358.787 447.933 353.567C442.801 348.756 439.01 343.031 438.124 335.98C437.265 329.153 439.328 321.991 443.923 316.69M472.541 310.274C469.408 308.912 465.942 308.186 462.817 308.16Z" fill="#EF7D6E"/>
<path d="M478.152 339.709C478.731 342.064 480.021 344.256 481.826 345.953C482.523 346.608 483.354 347.306 483.382 348.24C483.415 349.284 482.434 350.067 481.547 350.678" fill="#FFB2A3"/>
<path fill-rule="evenodd" clip-rule="evenodd" d="M478.007 339.117C478.334 339.036 478.664 339.236 478.745 339.563C479.295 341.802 480.522 343.891 482.244 345.509C482.293 345.555 482.344 345.603 482.397 345.652C482.697 345.931 483.048 346.257 483.331 346.611C483.671 347.036 483.972 347.569 483.992 348.221L483.992 348.221C484.015 348.954 483.677 349.555 483.269 350.023C482.863 350.487 482.342 350.871 481.893 351.18C481.616 351.371 481.236 351.301 481.045 351.024C480.854 350.747 480.924 350.367 481.201 350.175C481.639 349.874 482.051 349.561 482.35 349.22C482.645 348.882 482.782 348.57 482.773 348.259M478.007 339.117C477.679 339.197 477.479 339.527 477.56 339.855ZM477.56 339.855C478.167 342.327 479.519 344.622 481.408 346.398ZM481.58 346.559C481.524 346.506 481.466 346.453 481.408 346.398L481.408 346.398M481.58 346.559C481.882 346.84 482.156 347.096 482.378 347.373ZM482.378 347.373C482.635 347.694 482.764 347.977 482.773 348.259Z" fill="#EF7D6E"/>
<path d="M461.802 340.385C463.297 339.52 464.43 338.305 466.091 337.643C467.862 336.938 469.638 336.937 471.51 336.752C472.021 336.702 471.968 336.008 471.559 335.861C468.324 334.691 462.452 336.669 461.373 340.035C461.301 340.261 461.566 340.523 461.802 340.385Z" fill="#522525"/>
<path d="M469.876 345.261C472.301 344.33 470.791 340.731 468.363 341.662C465.938 342.593 467.447 346.192 469.876 345.261Z" fill="#522525"/>
<path d="M484.384 340.849C486.859 340.049 485.561 336.374 483.082 337.175C480.607 337.976 481.905 341.649 484.384 340.849Z" fill="#522525"/>
<path d="M479.62 334.392C480.913 333.744 482.196 333.009 483.639 332.72C484.803 332.486 486.39 332.986 487.384 332.418C487.593 332.299 487.736 332.027 487.595 331.805C486.771 330.503 484.37 330.91 483.079 331.294C481.455 331.777 480.05 332.696 479.456 334.256C479.419 334.348 479.531 334.436 479.62 334.392Z" fill="#522525"/>
<path d="M477.135 357.087C479.012 357.11 480.892 356.549 482.422 355.51L477.135 357.087Z" fill="#FFB2A3"/>
<path d="M477.135 357.494C478.957 357.624 481.085 357.64 482.672 356.624C482.97 356.433 483.239 356.075 483.202 355.698C483.087 354.499 482.004 354.496 481.131 355.021C479.812 355.817 478.729 356.542 477.134 356.679C476.615 356.725 476.61 357.456 477.135 357.494Z" fill="#EF7D6E"/>
<path d="M478.695 359.197C479.486 359.385 480.347 359.292 481.076 358.943L478.695 359.197Z" fill="#FFB2A3"/>
<path d="M478.432 359.668C479.071 360.418 480.839 360.249 481.457 359.553C481.919 359.033 481.578 358.318 480.919 358.254C480.533 358.215 480.125 358.38 479.737 358.423C479.355 358.465 478.883 358.503 478.557 358.705C478.199 358.924 478.174 359.364 478.432 359.668Z" fill="#EF7D6E"/>
<path d="M458.941 301.28C449.221 303.461 440.868 310.232 436.446 318.711C431.838 327.545 432.681 338.071 436.892 346.913C442.79 359.297 452.105 360.8 456.147 360.609C453.574 358.564 451.946 355 451.527 353.288C450.896 350.709 450.641 350.292 452.595 348.082C453.863 346.649 455.765 345.882 457.243 344.646C462.356 340.367 461.114 331.921 465.897 327.307C468.351 324.94 471.914 324.062 475.129 322.77C478.551 321.396 482.336 318.73 482.468 314.823C482.598 310.917 479.731 307.301 476.753 304.902C471.453 300.632 465.087 299.9 458.941 301.28Z" fill="#522525"/>
<path d="M453.529 348.547C452.264 346.838 449.721 345.495 447.548 345.343C443.587 345.068 442.729 348.983 444.293 351.735C446.34 355.332 451.06 359.424 455.646 357.492" fill="#FFB2A3"/>
<path fill-rule="evenodd" clip-rule="evenodd" d="M444.832 345.317C445.57 344.87 446.497 344.659 447.59 344.735L447.59 344.735C449.931 344.898 452.643 346.323 454.02 348.184C454.22 348.454 454.163 348.836 453.892 349.037C453.622 349.237 453.24 349.18 453.039 348.91C451.886 347.353 449.511 346.092 447.505 345.952C446.618 345.89 445.952 346.065 445.464 346.361C444.977 346.656 444.629 347.095 444.415 347.63C443.981 348.718 444.117 350.19 444.823 351.433M444.832 345.317C444.093 345.765 443.582 346.425 443.282 347.178ZM443.282 347.178C442.688 348.666 442.905 350.527 443.763 352.036ZM448.698 357.207C446.589 355.915 444.829 353.911 443.763 352.036L443.763 352.036M448.698 357.207C450.813 358.504 453.351 359.121 455.882 358.055ZM449.336 356.167C451.239 357.333 453.354 357.795 455.409 356.93C455.719 356.799 456.077 356.945 456.208 357.256C456.339 357.566 456.193 357.924 455.882 358.055M449.336 356.167C447.427 354.997 445.804 353.156 444.824 351.433Z" fill="#EF7D6E"/>
<path fill-rule="evenodd" clip-rule="evenodd" d="M449.798 349.702C449.06 349.061 448.361 348.834 447.749 349.098L447.507 348.539L447.749 349.098C447.631 349.149 447.495 349.308 447.465 349.584C447.436 349.851 447.524 350.109 447.705 350.269C447.958 350.492 447.981 350.877 447.758 351.13C447.535 351.382 447.15 351.406 446.897 351.183C446.37 350.718 446.188 350.043 446.252 349.453C446.315 348.872 446.635 348.25 447.265 347.978L447.265 347.978C448.532 347.431 449.738 348.034 450.598 348.78C451.473 349.539 452.166 350.585 452.52 351.353C452.604 351.536 452.592 351.749 452.489 351.922C452.385 352.095 452.203 352.205 452.002 352.217C451.891 352.224 451.838 352.258 451.809 352.283C451.777 352.311 451.744 352.36 451.726 352.437C451.686 352.605 451.736 352.822 451.871 352.964L451.871 352.965C452.049 353.153 452.33 353.308 452.677 353.399C453.022 353.489 453.388 353.503 453.695 353.449C454.027 353.391 454.343 353.613 454.402 353.945C454.46 354.277 454.238 354.593 453.906 354.651C453.417 354.737 452.874 354.711 452.37 354.58C451.868 354.449 451.36 354.201 450.984 353.803C450.559 353.353 450.406 352.711 450.539 352.154C450.62 351.814 450.811 351.501 451.102 351.286C450.778 350.75 450.321 350.156 449.798 349.702Z" fill="#EF7D6E"/>
<path d="M422.921 475.231L416.879 478.326L442.148 527.656L448.191 524.561L422.921 475.231Z" fill="#D4D9FF"/>
<path d="M440.448 475.232L434.405 478.328L459.675 527.658L465.717 524.563L440.448 475.232Z" fill="#D4D9FF"/>
<path d="M456.637 485.62C453.94 475.051 441.186 447.597 438.852 443.513C432.482 432.366 393.385 435.829 393.385 435.829L414.872 485.62H456.637Z" fill="#5B6AD4"/>
<path d="M486.514 583.371H475.185V638.103H486.514V583.371Z" fill="#D4D9FF"/>
<path d="M527.278 633.637H433.943V641.007H527.278V633.637Z" fill="#5B6AD4"/>
<path d="M443.338 653.499C447.079 653.499 450.112 650.467 450.112 646.726C450.112 642.984 447.079 639.952 443.338 639.952C439.597 639.952 436.564 642.984 436.564 646.726C436.564 650.467 439.597 653.499 443.338 653.499Z" fill="#5B6AD4"/>
<path d="M518.293 653.499C522.034 653.499 525.067 650.467 525.067 646.726C525.067 642.984 522.034 639.952 518.293 639.952C514.552 639.952 511.519 642.984 511.519 646.726C511.519 650.467 514.552 653.499 518.293 653.499Z" fill="#5B6AD4"/>
<path d="M489.701 526.789H471.998V594.292H489.701V526.789Z" fill="#D4D9FF"/>
<path d="M489.701 526.789H471.998V539.007H489.701V526.789Z" fill="#5B6AD4"/>
<path d="M528.751 520.815L431.222 520.515L435.65 530.926L532.711 533.521L528.751 520.815Z" fill="#5B6AD4"/>
<rect width="1920" height="80" fill="#333333"/>
<path d="M335.104 29.8V51.16H332.272V29.8H335.104ZM316.816 39.064C316.816 34.288 318.64 31.336 321.472 31.336C324.016 31.336 325.792 33.736 326.128 37.72H327.856V30.136H330.688V50.152H327.856V40.12H326.128C325.864 44.296 324.088 46.816 321.472 46.792C318.64 46.816 316.816 43.864 316.816 39.064ZM319.552 39.064C319.552 42.352 320.272 43.96 321.472 43.96C322.696 43.96 323.416 42.352 323.392 39.064C323.416 35.8 322.696 34.168 321.472 34.168C320.272 34.168 319.552 35.8 319.552 39.064ZM355.222 29.8V51.208H352.198V29.8H355.222ZM337.99 38.92C337.99 34.264 340.39 31.336 343.654 31.336C346.87 31.336 349.246 34.264 349.27 38.92C349.246 43.6 346.87 46.552 343.654 46.552C340.39 46.552 337.99 43.6 337.99 38.92ZM340.87 38.92C340.87 42.112 341.998 43.816 343.654 43.816C345.262 43.816 346.366 42.112 346.39 38.92C346.366 35.752 345.262 34.024 343.654 34.024C341.998 34.024 340.87 35.752 340.87 38.92ZM377.596 41.896V44.296H373.18V51.16H370.204V44.296H365.548V51.16H362.476V44.296H358.108V41.896H377.596ZM360.364 39.88V30.616H363.34V33.016H372.316V30.616H375.292V39.88H360.364ZM363.34 37.528H372.316V35.32H363.34V37.528Z" fill="white"/>
<rect x="260" y="20" width="40" height="40" rx="4" fill="white"/>
<path d="M278.94 46.308V47.496H264.648V46.308H271.056V43.392H266.412V38.568H275.772V36.12H266.376V34.968H277.14V39.684H267.78V42.24H277.5V43.392H272.424V46.308H278.94ZM292.733 35.4V36.948C292.715 38.856 292.715 40.998 292.121 44.148L290.753 43.968C291.329 40.998 291.329 38.82 291.329 36.948V36.516H281.717V35.4H292.733ZM280.205 47.208V46.056H285.785V40.476H287.153V46.056H294.425V47.208H280.205Z" fill="#D8D8D8"/>
<path d="M1582.72 32.744V40.772H1581.06V39.26H1577.03V37.964H1581.06V36.236H1577.24C1576.27 38.684 1573.9 40.304 1570.4 41.096L1569.83 39.728C1573.59 38.9 1575.64 37.154 1575.91 34.832H1570.66V33.464H1577.75C1577.75 33.986 1577.71 34.472 1577.62 34.94H1581.06V32.744H1582.72ZM1572.42 42.752V41.42H1582.72V45.416H1574.11V47H1583.18V48.332H1572.46V44.156H1581.02V42.752H1572.42ZM1593.92 34.436V35.408C1593.9 36.722 1593.9 38.756 1593.45 41.564L1591.79 41.456C1592.21 38.918 1592.24 37.064 1592.26 35.768H1585.85V34.436H1593.92ZM1584.99 43.724C1585.96 43.724 1587.06 43.724 1588.19 43.688V38.936H1589.85V43.652C1591.52 43.58 1593.23 43.472 1594.82 43.292L1594.92 44.516C1591.63 45.056 1587.98 45.128 1585.17 45.092L1584.99 43.724ZM1595.72 48.476V32.744H1597.41V39.26H1599.82V40.664H1597.41V48.476H1595.72ZM1618.15 32.744V48.512H1616.5V32.744H1618.15ZM1605.95 35.516V34.148H1613.33V39.908H1607.71V43.364C1610.27 43.346 1612.5 43.238 1615.13 42.788L1615.27 44.192C1612.48 44.642 1610.11 44.75 1607.32 44.732H1605.98V38.576H1611.64V35.516H1605.95ZM1635.08 45.2V46.604H1620.64V45.2H1626.98V41.852H1621.9V40.52H1624.28V35.552H1621.86V34.184H1633.74V35.552H1631.33V40.52H1633.71V41.852H1628.63V45.2H1635.08ZM1625.93 40.52H1629.71V35.552H1625.93V40.52ZM1648.98 41.132V42.464H1638V34.04H1648.83V35.408H1639.69V37.532H1648.47V38.864H1639.69V41.132H1648.98ZM1636.2 46.496V45.128H1650.63V46.496H1636.2Z" fill="white"/>
<path d="M1092.98 345H1088.56L1095.39 325.176H1100.71L1107.54 345H1103.12L1101.64 340.464H1094.47L1092.98 345ZM1095.5 337.216H1100.6L1098.14 329.656H1097.97L1095.5 337.216ZM1113.87 325.176V345H1109.78V325.176H1113.87ZM1139.06 341.864V344.72H1116.26V341.864H1125.9V338.112H1118.9V329.768H1132.95V327.024H1118.84V324.224H1136.42V332.512H1122.37V335.312H1136.98V338.112H1129.31V341.864H1139.06ZM1167.75 322.6V335.256H1164.28V322.6H1167.75ZM1146.8 332.568C1150.98 331.308 1152.82 328.172 1152.85 325.064V323.16H1156.44V325.064C1156.44 328.116 1158.26 331 1162.32 332.176L1160.64 334.864C1157.75 334.024 1155.79 332.288 1154.67 330.048C1153.55 332.484 1151.51 334.416 1148.54 335.312L1146.8 332.568ZM1151.06 339.008V336.32H1167.75V343.04H1154.53V344.608H1168.42V347.352H1151.12V340.464H1164.28V339.008H1151.06ZM1192.11 322.656V340.8H1188.64V331.896H1184.55V329.096H1188.64V322.656H1192.11ZM1171 335.2C1175.09 333.94 1176.97 330.692 1176.99 327.472V327.136H1171.95V324.336H1185.45V327.136H1180.52V327.528C1180.52 330.412 1182.29 333.492 1186.23 334.808L1184.5 337.552C1181.75 336.628 1179.85 334.836 1178.79 332.596C1177.69 335.088 1175.71 337.076 1172.79 338.056L1171 335.2ZM1175.59 347.072V339.232H1179.07V344.272H1192.67V347.072H1175.59ZM1216.37 322.6V347.576H1212.84V334.976H1208.36V332.176H1212.84V322.6H1216.37ZM1195.2 340.184C1199.21 338.392 1201.17 334.164 1201.19 330.44V329.488H1195.99V326.688H1201.19V323.16H1204.67V326.688H1209.71V329.488H1204.67V330.44C1204.64 334.024 1206.63 338.056 1210.71 339.792L1208.81 342.48C1205.98 341.304 1204.02 338.924 1202.93 336.096C1201.87 339.12 1199.91 341.64 1197.05 342.872L1195.2 340.184ZM1240.51 338.336V347.24H1223.71V338.336H1240.51ZM1220.47 326.576V323.776H1231.72V331.392H1223.94V333.744C1227.72 333.744 1230.41 333.604 1233.51 333.128L1233.79 335.928C1230.24 336.516 1227.13 336.6 1222.54 336.6H1220.52V328.76H1228.36V326.576H1220.47ZM1227.13 344.44H1237.04V341.024H1227.13V344.44ZM1233.01 330.608V327.808H1237.04V322.656H1240.51V337.272H1237.04V330.608H1233.01ZM1263.05 324.672V326.52H1267.69V322.656H1271.17V340.744H1267.69V334.696H1263.05V336.768H1251.23V324.672H1263.05ZM1254.59 347.072V339.064H1258.12V344.272H1271.67V347.072H1254.59ZM1254.7 334.08H1259.63V327.416H1254.7V334.08ZM1263.05 331.896H1267.69V329.376H1263.05V331.896ZM1295.36 322.6V336.264H1291.89V331.056H1287.92V328.2H1291.89V322.6H1295.36ZM1274.25 333.968C1278.17 332.624 1280.05 329.6 1280.24 326.576H1275.2V323.776H1288.7V326.576H1283.77C1283.94 329.376 1285.7 332.26 1289.48 333.464L1287.75 336.208C1285 335.284 1283.1 333.492 1282.04 331.252C1280.94 333.716 1278.96 335.704 1276.04 336.656L1274.25 333.968ZM1278.73 347.24V337.216H1282.2V339.568H1291.89V337.216H1295.36V347.24H1278.73ZM1282.2 344.44H1291.89V342.256H1282.2V344.44ZM1309.93 322.992C1315.64 322.992 1318.95 324.476 1318.95 327.248C1318.95 329.992 1315.64 331.504 1309.93 331.504C1304.16 331.504 1300.83 329.992 1300.86 327.248C1300.83 324.476 1304.16 322.992 1309.93 322.992ZM1298.56 335.424V332.68H1321.3V335.424H1298.56ZM1301.2 347.352V340.8H1315.08V339.456H1301.2V336.88H1318.5V343.208H1304.61V344.72H1319.17V347.352H1301.2ZM1304.5 327.248C1304.5 328.452 1306.26 328.928 1309.93 328.928C1313.6 328.928 1315.36 328.452 1315.36 327.248C1315.36 326.128 1313.6 325.54 1309.93 325.512C1306.26 325.54 1304.5 326.128 1304.5 327.248ZM1350.22 322.656V340.856H1346.74V334.976H1341C1339.8 336.236 1338.09 336.992 1336.16 336.992C1332.41 336.992 1329.52 334.248 1329.55 330.552C1329.52 326.8 1332.41 324.112 1336.16 324.112C1338.09 324.112 1339.83 324.868 1341.03 326.128H1346.74V322.656H1350.22ZM1332.86 330.552C1332.86 332.652 1334.23 333.884 1336.16 333.912C1338.01 333.884 1339.41 332.652 1339.41 330.552C1339.41 328.452 1338.01 327.192 1336.16 327.192C1334.23 327.192 1332.86 328.452 1332.86 330.552ZM1333.7 347.072V339.008H1337.17V344.272H1350.78V347.072H1333.7ZM1342.54 332.176H1346.74V328.928H1342.54C1342.68 329.432 1342.77 329.992 1342.77 330.552C1342.77 331.112 1342.68 331.672 1342.54 332.176ZM1359.52 337.552V339.68H1369.77V337.552H1373.24V347.24H1356.1V337.552H1359.52ZM1353.42 336.32V333.52H1376.15V336.32H1353.42ZM1354.54 329.656C1360.11 328.984 1362.96 326.268 1362.99 323.72V322.88H1366.58V323.72C1366.58 326.212 1369.43 329.04 1374.98 329.656L1373.74 332.4C1369.46 331.868 1366.35 330.076 1364.78 327.668C1363.16 330.076 1360.05 331.868 1355.82 332.4L1354.54 329.656ZM1359.52 344.496H1369.77V342.312H1359.52V344.496ZM1397.27 322.6V332.4H1400.91V335.256H1397.27V347.52H1393.8V322.6H1397.27ZM1377.5 329.152V326.352H1383.1V322.992H1386.63V326.352H1392.12V329.152H1377.5ZM1378.51 336.488C1378.48 332.988 1381.2 330.524 1384.89 330.552C1388.51 330.524 1391.22 332.988 1391.22 336.488C1391.22 339.932 1388.51 342.396 1384.89 342.368C1381.2 342.396 1378.48 339.932 1378.51 336.488ZM1381.87 336.488C1381.84 338.392 1383.1 339.54 1384.89 339.512C1386.6 339.54 1387.86 338.392 1387.86 336.488C1387.86 334.556 1386.6 333.38 1384.89 333.352C1383.1 333.38 1381.84 334.556 1381.87 336.488ZM1422.31 324.784V327.136C1422.31 330.244 1422.31 333.744 1421.36 339.064L1417.83 338.672C1418.75 333.996 1418.81 330.524 1418.84 327.584H1404.17V324.784H1422.31ZM1401.81 344.496V341.64H1409.93V333.072H1413.41V341.64H1424.55V344.496H1401.81ZM1097.91 373.432C1097.91 377.212 1099.93 381.58 1104.02 383.456L1102.06 386.2C1099.28 384.94 1097.32 382.392 1096.23 379.424C1095.11 382.7 1093.07 385.472 1090.18 386.816L1088.17 384.072C1092.31 382.14 1094.41 377.52 1094.44 373.432V371.864H1089.18V369.008H1102.95V371.864H1097.91V373.432ZM1104.86 391.52V366.6H1108.38V376.12H1112.02V379.032H1108.38V391.52H1104.86ZM1133.76 366.656V384.8H1130.29V366.656H1133.76ZM1112.87 378.696C1117.02 377.268 1118.84 373.796 1118.86 370.408V368H1122.45V370.408C1122.45 373.712 1124.21 376.932 1128.33 378.248L1126.54 380.992C1123.71 380.068 1121.78 378.192 1120.68 375.812C1119.56 378.36 1117.58 380.432 1114.66 381.44L1112.87 378.696ZM1117.07 391.072V383.064H1120.6V388.272H1134.43V391.072H1117.07ZM1145.19 368.28C1149.14 368.28 1152.08 370.828 1152.08 374.384C1152.08 377.968 1149.14 380.516 1145.19 380.488C1141.27 380.516 1138.27 377.968 1138.3 374.384C1138.27 370.828 1141.27 368.28 1145.19 368.28ZM1137.24 383.68C1141.69 383.652 1147.85 383.596 1153.14 382.84L1153.42 385.36C1147.91 386.452 1142 386.48 1137.63 386.48L1137.24 383.68ZM1141.77 374.384C1141.75 376.372 1143.23 377.492 1145.19 377.52C1147.18 377.492 1148.69 376.372 1148.72 374.384C1148.69 372.452 1147.18 371.304 1145.19 371.304C1143.23 371.304 1141.75 372.452 1141.77 374.384ZM1154.6 391.576V366.6H1158.07V391.576H1154.6ZM1188.78 382.448V391.52H1185.31V385.192H1171.64V382.448H1188.78ZM1168.11 374.048C1168.09 370.52 1170.97 367.944 1174.72 367.944C1176.74 367.944 1178.5 368.7 1179.71 369.96H1185.31V366.6H1188.78V381.328H1185.31V378.192H1179.71C1178.5 379.48 1176.74 380.236 1174.72 380.264C1170.97 380.236 1168.09 377.66 1168.11 374.048ZM1171.42 374.048C1171.42 376.092 1172.79 377.268 1174.72 377.296C1176.57 377.268 1177.97 376.092 1177.97 374.048C1177.97 372.116 1176.57 370.912 1174.72 370.912C1172.79 370.912 1171.42 372.116 1171.42 374.048ZM1181.16 375.392H1185.31V372.76H1181.19C1181.27 373.18 1181.33 373.6 1181.33 374.048C1181.33 374.524 1181.27 374.972 1181.16 375.392ZM1215.11 369.96V372.872H1211.75V375.224H1215.11V378.136H1211.75V381.664H1208.22V366.656H1211.75V369.96H1215.11ZM1192.87 380.6V372.928H1200.88V370.856H1192.87V368.112H1204.3V375.56H1196.4V377.744C1200.49 377.716 1203.26 377.548 1206.43 377.016L1206.82 379.76C1203.23 380.46 1200.04 380.572 1195 380.6H1192.87ZM1195 386.816C1195 383.848 1198.25 382.056 1203.51 382.056C1208.69 382.056 1211.97 383.848 1211.97 386.816C1211.97 389.784 1208.69 391.492 1203.51 391.464C1198.25 391.492 1195 389.784 1195 386.816ZM1198.42 386.816C1198.42 388.188 1200.21 388.888 1203.51 388.888C1206.79 388.888 1208.53 388.188 1208.5 386.816C1208.53 385.444 1206.79 384.744 1203.51 384.744C1200.21 384.744 1198.42 385.444 1198.42 386.816ZM1227.55 366.992C1233.26 366.992 1236.56 368.476 1236.56 371.248C1236.56 373.992 1233.26 375.504 1227.55 375.504C1221.78 375.504 1218.45 373.992 1218.47 371.248C1218.45 368.476 1221.78 366.992 1227.55 366.992ZM1216.18 379.424V376.68H1238.91V379.424H1216.18ZM1218.81 391.352V384.8H1232.7V383.456H1218.81V380.88H1236.11V387.208H1222.23V388.72H1236.79V391.352H1218.81ZM1222.11 371.248C1222.11 372.452 1223.88 372.928 1227.55 372.928C1231.21 372.928 1232.98 372.452 1232.98 371.248C1232.98 370.128 1231.21 369.54 1227.55 369.512C1223.88 369.54 1222.11 370.128 1222.11 371.248ZM1261.05 368.896V371.752H1258.81V382.588C1259.82 382.504 1260.83 382.392 1261.78 382.28L1261.95 384.8C1256.85 385.668 1251.17 385.78 1246.89 385.808L1246.49 382.952H1249.35V371.752H1247.17V368.896H1261.05ZM1252.71 382.896L1255.45 382.784V371.752H1252.71V382.896ZM1262.96 391.52V366.6H1266.49V376.12H1270.13V378.92H1266.49V391.52H1262.96ZM1278.03 368C1281.89 367.972 1284.8 370.52 1284.8 374.048C1284.8 377.632 1281.89 380.152 1278.03 380.152C1274.14 380.152 1271.2 377.632 1271.2 374.048C1271.2 370.52 1274.14 367.972 1278.03 368ZM1274.05 385.024V382.224H1290.8V391.52H1287.27V385.024H1274.05ZM1274.61 374.048C1274.61 376.036 1276.07 377.212 1278.03 377.184C1279.96 377.212 1281.42 376.036 1281.44 374.048C1281.42 372.116 1279.96 370.968 1278.03 370.968C1276.07 370.968 1274.61 372.116 1274.61 374.048ZM1287.27 381.16V366.6H1290.8V372.48H1294.16V375.336H1290.8V381.16H1287.27ZM1307.27 370.408V373.208H1295.17V370.408H1299.54V367.328H1302.96V370.408H1307.27ZM1295.79 380.208C1295.79 376.764 1298.11 374.328 1301.28 374.328C1304.47 374.328 1306.74 376.764 1306.76 380.208C1306.74 383.708 1304.47 386.144 1301.28 386.144C1298.11 386.144 1295.79 383.708 1295.79 380.208ZM1298.87 380.208C1298.84 382.112 1299.85 383.204 1301.28 383.176C1302.68 383.204 1303.66 382.112 1303.68 380.208C1303.66 378.36 1302.68 377.212 1301.28 377.24C1299.85 377.212 1298.84 378.36 1298.87 380.208ZM1308.16 390.456V367.104H1311.41V376.736H1313.43V366.6H1316.79V391.52H1313.43V379.536H1311.41V390.456H1308.16ZM1342.22 385.808V388.608H1319.43V385.808H1329.06V381.16H1321.84V368.224H1325.36V372.088H1336.23V368.224H1339.7V381.16H1332.48V385.808H1342.22ZM1325.36 378.416H1336.23V374.832H1325.36V378.416ZM1351.63 372.872C1351.61 376.932 1352.73 381.076 1356.17 383.288L1354.27 385.976C1352.11 384.688 1350.74 382.532 1349.93 379.956C1349.06 382.784 1347.55 385.136 1345.31 386.536L1343.18 383.96C1346.85 381.664 1348.22 377.268 1348.22 373.04V368.784H1351.63V372.872ZM1353.54 377.856V375H1356.73V366.992H1359.98V390.344H1356.73V377.856H1353.54ZM1361.88 391.52V366.6H1365.19V391.52H1361.88ZM1390.62 385.752V388.608H1367.83V385.752H1372.92V379.648C1370.99 378.472 1369.84 376.708 1369.84 374.496C1369.84 370.52 1373.79 367.832 1379.19 367.832C1384.57 367.832 1388.55 370.52 1388.55 374.496C1388.55 376.68 1387.4 378.444 1385.52 379.592V385.752H1390.62ZM1373.26 374.496C1373.29 376.96 1375.61 378.472 1379.19 378.472C1382.69 378.472 1385.1 376.96 1385.13 374.496C1385.1 372.032 1382.69 370.576 1379.19 370.576C1375.61 370.576 1373.29 372.032 1373.26 374.496ZM1376.39 385.752H1381.99V380.908C1381.13 381.076 1380.17 381.16 1379.19 381.16C1378.21 381.16 1377.26 381.076 1376.39 380.908V385.752Z" fill="#1A1A1A"/>
<rect x="1088" y="457" width="217" height="56" rx="10" fill="#497AF8"/>
<path d="M1151.72 477.48V478.8H1155.04V476.04H1157.52V488.96H1155.04V484.64H1151.72V486.12H1143.28V477.48H1151.72ZM1145.68 493.48V487.76H1148.2V491.48H1157.88V493.48H1145.68ZM1145.76 484.2H1149.28V479.44H1145.76V484.2ZM1151.72 482.64H1155.04V480.84H1151.72V482.64ZM1174.81 476V485.76H1172.33V482.04H1169.49V480H1172.33V476H1174.81ZM1159.73 484.12C1162.53 483.16 1163.87 481 1164.01 478.84H1160.41V476.84H1170.05V478.84H1166.53C1166.65 480.84 1167.91 482.9 1170.61 483.76L1169.37 485.72C1167.41 485.06 1166.05 483.78 1165.29 482.18C1164.51 483.94 1163.09 485.36 1161.01 486.04L1159.73 484.12ZM1162.93 493.6V486.44H1165.41V488.12H1172.33V486.44H1174.81V493.6H1162.93ZM1165.41 491.6H1172.33V490.04H1165.41V491.6ZM1188.62 480.04C1188.62 483.32 1190.1 486.58 1193.14 487.84L1191.66 489.84C1189.62 488.92 1188.2 487.16 1187.4 484.96C1186.6 487.36 1185.14 489.3 1182.98 490.28L1181.46 488.2C1184.58 486.9 1186.08 483.5 1186.1 480.04V477.4H1188.62V480.04ZM1194.06 493.84V476H1196.58V493.84H1194.06ZM1209.1 477.04V479.04H1205.54C1205.56 481.12 1206.8 483.26 1209.7 484.2L1208.42 486.12C1206.46 485.48 1205.1 484.22 1204.32 482.62C1203.54 484.36 1202.12 485.76 1200.06 486.44L1198.74 484.48C1201.66 483.54 1203 481.26 1203.02 479.04H1199.42V477.04H1209.1ZM1201.14 489.48V487.52H1213.1V493.8H1210.58V489.48H1201.14ZM1210.58 486.76V476H1213.1V480.32H1215.5V482.4H1213.1V486.76H1210.58ZM1230.31 476V483H1232.91V485.04H1230.31V493.8H1227.83V476H1230.31ZM1216.19 480.68V478.68H1220.19V476.28H1222.71V478.68H1226.63V480.68H1216.19ZM1216.91 485.92C1216.89 483.42 1218.83 481.66 1221.47 481.68C1224.05 481.66 1225.99 483.42 1225.99 485.92C1225.99 488.38 1224.05 490.14 1221.47 490.12C1218.83 490.14 1216.89 488.38 1216.91 485.92ZM1219.31 485.92C1219.29 487.28 1220.19 488.1 1221.47 488.08C1222.69 488.1 1223.59 487.28 1223.59 485.92C1223.59 484.54 1222.69 483.7 1221.47 483.68C1220.19 483.7 1219.29 484.54 1219.31 485.92ZM1248.52 476V493.8H1246V476H1248.52ZM1233.64 488.76C1238.22 486.58 1240.24 483.78 1240.64 479.84H1234.56V477.88H1243.16C1243.18 483.26 1241.28 487.76 1234.92 490.76L1233.64 488.76Z" fill="white"/>
<defs>
<linearGradient id="paint0_linear_1_2" x1="695.454" y1="326.729" x2="636.432" y2="464.193" gradientUnits="userSpaceOnUse">
<stop stop-color="white"/>
<stop offset="1" stop-color="white" stop-opacity="0"/>
</linearGradient>
<linearGradient id="paint1_linear_1_2" x1="702.621" y1="329.807" x2="643.599" y2="467.27" gradientUnits="userSpaceOnUse">
<stop stop-color="white"/>
<stop offset="1" stop-color="white" stop-opacity="0"/>
</linearGradient>
</defs>
</svg>
